<svg width="204" height="162" fill="none" xmlns="http://www.w3.org/2000/svg"><path d="M20.143 147.84l3.486 5.474 3.637-2.316-3.368-5.289 2.042-1.3 3.368 5.289 5.27-3.356 1.359 2.134-12.99 8.272-4.845-7.608 2.041-1.3zm3.081-13.058c.718-.463 1.177-1.07 1.377-1.822.186-.746.117-1.544-.208-2.393-.45-1.178-1.212-1.9-2.287-2.165l.37-2.237c1.881.444 3.2 1.659 3.96 3.645.638 1.672.647 3.215.025 4.63-.635 1.42-1.733 2.428-3.295 3.025-1.535.586-3.01.568-4.425-.053-1.428-.616-2.446-1.719-3.053-3.308-.575-1.508-.519-2.942.17-4.304.683-1.376 1.779-2.352 3.286-2.927.233-.089.551-.179.956-.271l3.124 8.18zm-1.8.711l-2.308-6.042c-.779.469-1.276 1.06-1.491 1.77-.22.696-.192 1.408.085 2.134.314.822.802 1.421 1.463 1.796.662.375 1.412.489 2.25.342zm-3.367-17.614c.798-.305 1.373-.804 1.723-1.498.336-.691.434-1.486.292-2.384-.197-1.246-.794-2.11-1.791-2.591l.824-2.112c1.749.822 2.79 2.283 3.121 4.384.28 1.767-.03 3.279-.93 4.535-.916 1.258-2.199 2.018-3.85 2.279-1.623.257-3.062-.065-4.318-.965-1.27-.898-2.039-2.187-2.304-3.868-.252-1.593.1-2.985 1.055-4.176.952-1.205 2.226-1.933 3.819-2.185a7.3 7.3 0 01.992-.068l1.367 8.649zm-1.909.324l-1.01-6.389c-.858.299-1.466.774-1.824 1.425-.36.636-.479 1.337-.357 2.105.137.869.49 1.556 1.06 2.06.57.504 1.28.77 2.131.799zm4.866-15.963l-16.06-.172.026-2.376 16.06.172-.026 2.376zM8.923 87.996c.25.33.347.7.29 1.107a1.514 1.514 0 01-.583 1.007 1.514 1.514 0 01-1.128.287 1.44 1.44 0 01-.986-.58 1.43 1.43 0 01-.31-1.132c.06-.421.261-.756.606-1.004.331-.25.7-.347 1.107-.29.407.056.741.258 1.004.605zm12.658 4.022l-10.896-1.512.326-2.353 10.896 1.511-.326 2.353zM14.252 73.13c.379-1.203 1.07-2.053 2.073-2.552 1.003-.499 2.176-.537 3.519-.113l6.441 2.03-.714 2.267-6.21-1.959c-.784-.246-1.452-.226-2.004.061-.552.287-.942.795-1.171 1.522-.252.797-.203 1.52.146 2.169.335.643 1.014 1.126 2.035 1.448l5.623 1.773-.714 2.266-10.492-3.307.715-2.266 1.343.423c-.861-1.025-1.058-2.279-.59-3.761zm9.506-19.901l1.157-2.025 9.111 5.207c1.452.83 2.293 1.944 2.524 3.343.231 1.4-.043 2.78-.822 4.142-1.259 2.203-2.891 3.272-4.898 3.207l-.016-2.366c1.264.063 2.286-.586 3.064-1.948.51-.892.67-1.72.483-2.486-.167-.772-.664-1.394-1.492-1.867l-1.165-.666c.664 1.41.585 2.834-.238 4.273-.771 1.35-1.9 2.217-3.386 2.6-1.5.377-2.93.176-4.293-.603-1.362-.778-2.255-1.905-2.68-3.38-.436-1.483-.268-2.9.503-4.25.823-1.438 2.01-2.23 3.561-2.373l-1.413-.808zm3.839 9.112c.908-.259 1.609-.82 2.104-1.687.495-.866.62-1.749.374-2.65-.238-.912-.784-1.613-1.637-2.1-.854-.488-1.734-.603-2.642-.345-.9.246-1.598.802-2.093 1.668-.495.866-.623 1.755-.385 2.668.246.9.795 1.595 1.648 2.082.854.488 1.73.61 2.63.364zm6.326-17.878c.275.242.626.287 1.053.135a8.35 8.35 0 001.387-.743 20.03 20.03 0 011.559-.973 3.202 3.202 0 011.766-.41c.635.012 1.233.265 1.794.759.793.697 1.144 1.553 1.053 2.567-.08 1.002-.528 1.966-1.342 2.892-.717.815-1.503 1.364-2.357 1.647a4 4 0 01-2.54.022l.46-2.32c1.044.41 1.978.148 2.802-.788.823-.936.926-1.675.31-2.218-.265-.232-.615-.267-1.052-.104-.426.152-.888.4-1.386.744a30.24 30.24 0 01-1.56.941 3.486 3.486 0 01-1.749.455c-.625-.022-1.213-.275-1.763-.76-.76-.668-1.12-1.492-1.078-2.471.05-.991.454-1.916 1.21-2.775.6-.683 1.287-1.153 2.06-1.41a4.027 4.027 0 012.346-.135l-.48 2.245c-.88-.266-1.649-.025-2.308.724-.3.342-.475.696-.524 1.063-.06.357.053.661.34.913zm23.169-10.069l-8.616-13.553 2.005-1.275 8.616 13.554-2.005 1.274zM69.6 15.711l2.194-.91 4.212 10.163-2.195.91-.607-1.464c-.349 1.494-1.296 2.561-2.84 3.202-1.396.578-2.802.557-4.218-.063-1.421-.633-2.44-1.695-3.058-3.185-.624-1.504-.654-2.976-.092-4.416.563-1.44 1.541-2.448 2.937-3.027 1.545-.64 2.966-.562 4.264.233l-.598-1.443zm-2.434 9.701c.862.357 1.754.345 2.675-.037.922-.382 1.561-1.004 1.918-1.866.352-.876.333-1.782-.054-2.717-.388-.934-1.012-1.58-1.875-1.938-.868-.37-1.763-.364-2.684.018-.921.381-1.558 1.01-1.909 1.886-.357.863-.342 1.761.046 2.696.387.935 1.015 1.588 1.883 1.958zm19.407-14.463c1.488-.26 2.855.066 4.102.979 1.247.913 2.01 2.172 2.292 3.775.278 1.59-.013 3.033-.873 4.33-.862 1.282-2.037 2.054-3.525 2.314-1.647.289-3.019-.104-4.115-1.178l.273 1.56-2.34.41L79.73 7.97l2.34-.41 1.028 5.873c.669-1.368 1.827-2.196 3.474-2.484zm-1.383 8.685c.764.536 1.637.718 2.62.546.982-.172 1.741-.64 2.277-1.404.534-.779.714-1.666.54-2.663-.175-.997-.645-1.763-1.408-2.3-.767-.55-1.641-.74-2.624-.568-.982.172-1.74.648-2.274 1.426-.536.764-.717 1.644-.543 2.641.175.997.645 1.77 1.412 2.322zm36.166-9.629l-6.405-1.045-.695 4.256 6.189 1.01-.39 2.388-6.188-1.01-1.007 6.166-2.497-.407 2.481-15.199 8.902 1.453-.39 2.388zM129.045 21c-.133.845.014 1.591.442 2.24.432.637 1.074 1.116 1.923 1.44 1.179.45 2.225.361 3.138-.264l1.422 1.766c-1.583 1.108-3.368 1.283-5.356.526-1.672-.638-2.829-1.659-3.47-3.065-.636-1.42-.657-2.91-.062-4.473.585-1.535 1.581-2.623 2.986-3.265 1.412-.655 2.912-.68 4.502-.074 1.507.575 2.54 1.572 3.097 2.993.571 1.426.57 2.893-.005 4.4a7.376 7.376 0 01-.434.894l-8.183-3.117zm.669-1.816l6.044 2.303c.168-.894.059-1.657-.328-2.291-.372-.629-.922-1.081-1.648-1.358-.823-.313-1.594-.348-2.315-.105-.72.244-1.305.727-1.753 1.45zm15.381 9.22c-.304.798-.315 1.56-.031 2.283.293.711.821 1.313 1.585 1.805 1.061.683 2.102.813 3.125.39l1.027 2.022c-1.778.756-3.561.559-5.349-.592-1.505-.969-2.426-2.207-2.763-3.715-.329-1.52-.041-2.984.864-4.39.889-1.38 2.088-2.24 3.596-2.577 1.515-.35 2.989-.064 4.419.857 1.357.873 2.161 2.062 2.413 3.568.264 1.513-.041 2.948-.914 4.304a7.22 7.22 0 01-.61.785l-7.362-4.74zm1.03-1.64l5.438 3.502c.349-.84.399-1.61.152-2.31-.235-.691-.679-1.248-1.332-1.668-.74-.477-1.488-.67-2.243-.581-.755.09-1.427.442-2.015 1.058zm8.666 14.261l10.824-11.864 1.756 1.601-10.825 11.864-1.755-1.601zm18.678.468a1.441 1.441 0 01-1.019-.52 1.518 1.518 0 01-.362-1.107c.045-.423.224-.767.537-1.033a1.439 1.439 0 011.089-.348 1.43 1.43 0 011.05.522c.276.324.391.698.346 1.121a1.441 1.441 0 01-.52 1.019 1.478 1.478 0 01-1.121.346zm-11.429 6.763l8.384-7.12 1.538 1.81-8.384 7.121-1.538-1.811zm18.969 7.112c.645 1.084.82 2.167.524 3.247-.296 1.08-1.05 1.98-2.26 2.7l-5.805 3.453-1.214-2.042 5.597-3.33c.706-.419 1.135-.93 1.289-1.534.153-.603.035-1.232-.355-1.887-.428-.719-.999-1.164-1.716-1.335-.703-.179-1.515.005-2.435.553l-5.068 3.013-1.214-2.042 9.454-5.623 1.215 2.043-1.211.72c1.338.04 2.405.728 3.199 2.064zm8.514 20.346l.74 2.212-9.952 3.328c-1.586.53-2.978.416-4.175-.344-1.197-.76-2.045-1.883-2.543-3.371-.804-2.407-.514-4.336.871-5.79l1.776 1.564c-.89.9-1.086 2.095-.588 3.584.326.973.837 1.645 1.533 2.015.686.39 1.482.433 2.386.13l1.273-.425c-1.494-.444-2.504-1.452-3.03-3.024-.493-1.474-.387-2.893.316-4.258.718-1.368 1.821-2.302 3.309-2.8 1.488-.497 2.924-.413 4.307.254 1.396.661 2.341 1.73 2.834 3.204.526 1.572.326 2.984-.601 4.237l1.544-.516zm-9.353-3.205c-.412.85-.46 1.747-.144 2.693.317.945.892 1.627 1.728 2.043.84.43 1.726.49 2.657.178.932-.311 1.604-.892 2.016-1.74.417-.836.467-1.727.151-2.672-.317-.946-.895-1.634-1.735-2.065-.835-.416-1.719-.469-2.651-.157-.931.311-1.606.885-2.022 1.72zm9.122 16.626c-.364.044-.632.276-.802.695a8.357 8.357 0 00-.369 1.53 19.78 19.78 0 01-.313 1.81 3.194 3.194 0 01-.871 1.59c-.431.466-1.018.744-1.76.834-1.049.127-1.921-.18-2.617-.924-.693-.728-1.114-1.704-1.263-2.927-.13-1.078-.016-2.03.342-2.856a3.996 3.996 0 011.674-1.91l1.426 1.89c-1.003.505-1.429 1.376-1.279 2.614.149 1.238.632 1.807 1.447 1.708.35-.042.609-.28.778-.714.171-.42.294-.93.369-1.53.091-.587.204-1.184.337-1.791a3.48 3.48 0 01.825-1.607c.433-.451 1.013-.721 1.741-.81 1.005-.121 1.859.16 2.562.843.705.697 1.126 1.614 1.264 2.75.109.902.002 1.728-.321 2.476a4.033 4.033 0 01-1.461 1.84l-1.355-1.853c.784-.48 1.116-1.214.996-2.204-.054-.451-.202-.818-.443-1.099-.226-.283-.529-.401-.907-.355zm-7.92 23.988l15.848 2.6-.385 2.345-15.848-2.6.385-2.345zm5.606 21.773l-.783 2.243-10.385-3.626.783-2.243 1.495.522c-.882-1.256-1.047-2.673-.496-4.251.498-1.427 1.45-2.461 2.855-3.105 1.419-.638 2.891-.692 4.414-.16 1.537.537 2.655 1.494 3.354 2.873.7 1.378.8 2.78.302 4.206-.551 1.579-1.555 2.588-3.014 3.026l1.475.515zm-5.616-8.276c-.84.406-1.425 1.079-1.754 2.021-.329.941-.29 1.832.115 2.673.42.846 1.107 1.435 2.063 1.769.955.333 1.853.298 2.694-.108.854-.401 1.446-1.072 1.775-2.013.329-.942.283-1.836-.136-2.681-.406-.841-1.086-1.428-2.042-1.762-.955-.333-1.86-.3-2.715.101zm-2.136 24.109c-.796 1.284-1.95 2.086-3.462 2.408-1.512.322-2.959.054-4.343-.805-1.37-.851-2.253-2.029-2.648-3.534-.382-1.497-.175-2.888.621-4.172.882-1.42 2.089-2.182 3.62-2.284l-1.346-.836 1.253-2.019 13.084 8.122-1.253 2.019-5.065-3.144c.575 1.409.421 2.825-.461 4.245zm-5.557-6.815c-.909.212-1.626.742-2.152 1.59-.526.847-.683 1.725-.47 2.634.225.917.768 1.642 1.628 2.175.859.534 1.744.695 2.653.482.921-.205 1.644-.731 2.17-1.579.526-.847.677-1.729.452-2.645-.213-.909-.749-1.631-1.609-2.164-.86-.534-1.751-.698-2.672-.493z" fill="#fff"/></svg>