<svg width="12" height="12" viewBox="0 0 12 12" fill="none" xmlns="http://www.w3.org/2000/svg">
<path d="M11.9639 3.52625C11.9347 2.88757 11.8333 2.45142 11.685 2.06982C11.5344 1.66946 11.2982 1.30682 10.9929 1.00708C10.6933 0.701843 10.3305 0.465546 9.93018 0.31485C9.54849 0.166626 9.11243 0.0652771 8.47375 0.0362549C7.83389 0.00695801 7.62946 0 6 0C4.37054 0 4.16611 0.00695801 3.52625 0.0360718C2.88757 0.0652771 2.45151 0.166718 2.06982 0.315033C1.66946 0.465637 1.30682 0.701843 1.00708 1.00708C0.701843 1.30673 0.465546 1.66937 0.31485 2.06973C0.166626 2.45142 0.0652771 2.88757 0.0362549 3.52615C0.00695801 4.16611 0 4.37045 0 5.99991C0 7.62946 0.00695801 7.83389 0.0362549 8.47375C0.0653686 9.11234 0.166809 9.54849 0.315124 9.93018C0.465729 10.3304 0.701935 10.6932 1.00717 10.9928C1.30682 11.2981 1.66956 11.5343 2.06992 11.6849C2.45151 11.8333 2.88766 11.9346 3.52634 11.9638C4.16629 11.993 4.37064 11.9999 6.00009 11.9999C7.62955 11.9999 7.83398 11.993 8.47385 11.9638C9.11252 11.9346 9.54858 11.8333 9.93027 11.6849C10.7362 11.3732 11.3733 10.7361 11.685 9.93018C11.8334 9.54849 11.9347 9.11234 11.9639 8.47375C11.993 7.8338 12 7.62946 12 6C12 4.37045 11.993 4.16611 11.9639 3.52625ZM10.8839 8.42459C10.8572 9.00961 10.7595 9.3273 10.6773 9.5387C10.4755 10.062 10.0619 10.4756 9.5386 10.6774C9.32721 10.7596 9.00952 10.8573 8.4245 10.884C7.79196 10.9129 7.60217 10.9189 6 10.9189C4.39774 10.9189 4.20804 10.9129 3.57541 10.884C2.99048 10.8573 2.67279 10.7596 2.4613 10.6774C2.20074 10.5812 1.965 10.4279 1.77145 10.2285C1.57214 10.035 1.41879 9.79935 1.32257 9.5387C1.24045 9.3273 1.14267 9.00961 1.11603 8.42459C1.08719 7.79196 1.08105 7.60217 1.08105 6.00009C1.08105 4.39792 1.08719 4.20822 1.11603 3.5755C1.14276 2.99048 1.24045 2.67279 1.32257 2.4614C1.41879 2.20074 1.57224 1.965 1.77145 1.77145C1.965 1.57214 2.20074 1.41879 2.4614 1.32266C2.67279 1.24045 2.99048 1.14276 3.5755 1.11603C4.20813 1.08719 4.39792 1.08105 6 1.08105H5.99991C7.60199 1.08105 7.79178 1.08719 8.4245 1.11612C9.00952 1.14276 9.32712 1.24054 9.5386 1.32266C9.79916 1.41888 10.0349 1.57224 10.2285 1.77145C10.4278 1.965 10.5811 2.20074 10.6772 2.4614C10.7595 2.67279 10.8572 2.99048 10.8839 3.5755C10.9127 4.20813 10.9189 4.39792 10.9189 6C10.9189 7.60217 10.9128 7.79187 10.8839 8.42459Z" fill="white"/>
<path d="M5.99997 2.91888C4.29837 2.91888 2.91895 4.2984 2.91895 6C2.91895 7.7016 4.29837 9.08102 5.99997 9.08102C7.70166 9.08102 9.08109 7.7016 9.08109 6C9.08109 4.2984 7.70166 2.91888 5.99997 2.91888ZM5.99997 7.99997C4.89548 7.99988 4 7.10449 4.00009 5.99991C4.00009 4.89542 4.89548 3.99994 6.00006 3.99994C7.10464 4.00003 8.00003 4.89542 8.00003 5.99991C8.00003 7.10449 7.10455 7.99997 5.99997 7.99997Z" fill="white"/>
<path d="M9.92294 2.79721C9.92294 3.19482 9.60059 3.51718 9.20297 3.51718C8.80527 3.51718 8.48291 3.19482 8.48291 2.79721C8.48291 2.39951 8.80527 2.07715 9.20297 2.07715C9.60059 2.07715 9.92294 2.39951 9.92294 2.79721Z" fill="white"/>
</svg>
