<svg width="247" height="35" viewBox="0 0 247 35" fill="none" xmlns="http://www.w3.org/2000/svg">
<g clip-path="url(#clip0)">
<path d="M176.1 14.3145C176.331 16.5548 175.824 18.7387 175.736 20.9707C175.717 21.4618 175.696 21.9585 175.739 22.4492C175.747 22.5408 175.752 22.6065 175.754 22.6542C175.767 22.698 175.785 22.7578 175.807 22.8399C175.846 23.0043 175.895 23.166 175.95 23.3258C175.916 23.1683 176.491 24.1468 176.324 23.9577C176.568 24.233 176.818 24.5042 177.1 24.7429C178.134 25.6201 179.734 26.2301 181.504 26.6355C183.679 27.1336 184.832 27.3536 186.957 27.2639C189.321 27.1643 191.66 26.8649 194.03 26.8488C194.519 26.8454 195.009 26.8473 195.499 26.8497V0.127502H175.533C175.113 4.85524 175.617 9.60855 176.1 14.3142L176.1 14.3145Z" fill="#A00711"/>
<path d="M181.182 15.6577C181.343 15.6577 181.418 15.7322 181.418 15.8905V20.113C181.418 21.2346 181.74 21.5628 182.843 21.5628H187.184C187.345 21.5628 187.42 21.637 187.42 21.7956V22.8328C187.42 22.9915 187.345 23.0655 187.184 23.0655H182.779C180.614 23.0655 179.778 22.3036 179.778 20.2718V15.8906C179.778 15.7324 179.864 15.6579 180.025 15.6579H181.182V15.6577Z" fill="white"/>
<path d="M183.001 26.1367C178.917 26.1367 176.916 24.2011 176.916 20.2897V2.21728V1.17643V0.127899H174.221V1.17643V2.21728V20.33C174.221 25.6125 177.12 28.2337 182.92 28.2337H195.499V26.1367H183.001Z" fill="white"/>
<path d="M20.9517 28.428H2.73682V15.4842H20.9517V28.428Z" fill="#F8141B"/>
<path d="M12.7254 25.4409C12.7254 25.8944 12.3576 26.2618 11.9039 26.2618H5.92781C5.47398 26.2618 5.10596 25.8944 5.10596 25.4409C5.10596 24.9875 5.47398 24.6205 5.92781 24.6205H11.9039C12.3576 24.6205 12.7254 24.9875 12.7254 25.4409Z" fill="white"/>
<path d="M12.7254 22.3972C12.7254 22.8508 12.3576 23.2183 11.9039 23.2183H5.92781C5.47398 23.2183 5.10596 22.8508 5.10596 22.3972C5.10596 21.9445 5.47398 21.5771 5.92781 21.5771H11.9039C12.3576 21.5771 12.7254 21.9445 12.7254 22.3972Z" fill="white"/>
<path d="M12.7254 19.3539C12.7254 19.8074 12.3576 20.1749 11.9039 20.1749H5.92781C5.47398 20.1749 5.10596 19.8074 5.10596 19.3539C5.10596 18.9009 5.47398 18.5338 5.92781 18.5338H11.9039C12.3576 18.5338 12.7254 18.9009 12.7254 19.3539Z" fill="white"/>
<path d="M2.73693 13.3875V7.86313C2.73693 4.23396 4.65637 2.41938 8.57703 2.41938H12.2119V0.322479H8.53622C2.8595 0.322479 0.000488281 2.82255 0.000488281 7.82285V24.7465V27.3798V28.4282H2.73677V27.3798V24.7465V15.4844H20.9516V13.3873H2.73677L2.73693 13.3875Z" fill="white"/>
<path d="M27.9208 17.9227H43.6667C43.7889 17.9227 43.8705 17.8421 43.8705 17.681V15.3047C43.8705 12.9283 42.6058 11.7203 40.1178 11.7203H31.8369C29.1853 11.7203 27.9209 12.9283 27.9209 15.3047V17.9227H27.9208ZM27.9208 19.8559V22.5142C27.9208 24.9711 29.4299 26.1792 32.4487 26.1792H37.0175C37.8742 26.1792 38.2822 26.5419 38.2822 27.2266C38.2822 27.871 37.8742 28.2334 37.0175 28.2334H32.4487C27.6351 28.2334 25.2285 26.3403 25.2285 22.5544V15.0631C25.2285 11.4784 27.3905 9.6662 31.6737 9.6662H40.2402C44.4419 9.6662 46.5631 11.3174 46.5631 14.5798V18.8895C46.5631 19.5338 46.0736 19.8559 45.2577 19.8559H27.9211H27.9208Z" fill="white"/>
<path d="M52.9787 17.9227H68.7246C68.847 17.9227 68.9286 17.8421 68.9286 17.681V15.3047C68.9286 12.9283 67.6639 11.7203 65.1759 11.7203H56.895C54.2434 11.7203 52.9789 12.9283 52.9789 15.3047V17.9227H52.9787ZM52.9787 19.8559V22.5142C52.9787 24.9711 54.488 26.1792 57.5068 26.1792H62.0756C62.9321 26.1792 63.3401 26.5419 63.3401 27.2266C63.3401 27.871 62.9321 28.2334 62.0756 28.2334H57.5068C52.6933 28.2334 50.2866 26.3403 50.2866 22.5544V15.0631C50.2866 11.4784 52.4486 9.6662 56.7318 9.6662H65.2983C69.4998 9.6662 71.6212 11.3174 71.6212 14.5798V18.8895C71.6212 19.5338 71.1317 19.8559 70.3159 19.8559H52.979H52.9787Z" fill="white"/>
<path d="M75.418 1.04709C75.418 0.362405 75.8668 0 76.7233 0C77.6617 0 78.1102 0.362405 78.1102 1.04709V27.3877C78.1102 28.0724 77.6617 28.435 76.7643 28.435C75.8668 28.435 75.418 28.0724 75.418 27.3877V1.04709Z" fill="white"/>
<path d="M82.4788 10.512C82.4788 9.82748 82.9276 9.46492 83.7841 9.46492C84.7224 9.46492 85.1711 9.82748 85.1711 10.512V27.3878C85.1711 28.0724 84.7224 28.435 83.8249 28.435C82.9276 28.435 82.4788 28.0724 82.4788 27.3878V10.512ZM83.7841 5.88051C82.8052 5.88051 82.3154 5.39693 82.3154 4.4707C82.3154 3.5443 82.8051 3.06088 83.7841 3.06088C84.804 3.06088 85.2933 3.5443 85.2933 4.4707C85.2933 5.39693 84.804 5.88051 83.7841 5.88051Z" fill="white"/>
<path d="M107.68 15.7478C107.68 13.0896 106.089 11.7605 102.785 11.7605H96.9512C93.7694 11.7605 92.0969 13.0895 92.0969 15.7478V27.3876C92.0969 28.0723 91.6484 28.4349 90.7507 28.4349C89.8942 28.4349 89.4048 28.0723 89.4048 27.3876V15.7478C89.4048 11.68 91.9746 9.6662 97.0329 9.6662H102.744C107.802 9.6662 110.413 11.68 110.413 15.7478V27.3876C110.413 28.0723 109.964 28.4349 109.067 28.4349C108.128 28.4349 107.68 28.0723 107.68 27.3876V15.7478H107.68Z" fill="white"/>
<path d="M121.912 26.0184H133.048V15.6273C133.048 13.0495 131.498 11.7609 128.398 11.7609H121.912C118.811 11.7609 117.261 13.0495 117.261 15.6273V22.5144C117.261 24.8505 118.811 26.0186 121.912 26.0186V26.0184ZM123.87 35C123.054 35 122.646 34.6375 122.646 33.9932C122.646 33.3086 123.054 32.946 123.87 32.946H128.561C131.58 32.946 133.048 31.7378 133.048 29.3211V28.0725H122.197C117.098 28.0725 114.528 26.0587 114.528 22.0311V15.7077C114.528 11.6801 117.098 9.6662 122.197 9.6662H128.112C133.211 9.6662 135.781 11.68 135.781 15.7077V29.2807C135.781 33.107 133.334 35 128.561 35H123.87H123.87Z" fill="white"/>
<path d="M159.261 24.5684C159.261 27.0254 157.058 28.2336 152.611 28.2336H140.823C140.007 28.2336 139.558 27.8712 139.558 27.2266C139.558 26.5419 140.007 26.1795 140.823 26.1795H152.611C155.304 26.1795 156.609 25.656 156.609 24.5684V21.9103C156.609 20.8227 155.304 20.299 152.611 20.299H146.493C141.965 20.299 139.762 19.0104 139.762 16.3521V14.1773C139.762 11.1564 142.047 9.6662 146.656 9.6662H150.939C151.755 9.6662 152.244 10.0288 152.244 10.7134C152.244 11.3577 151.755 11.7203 150.939 11.7203H146.656C143.841 11.7203 142.373 12.5659 142.373 14.1773V16.3119C142.373 17.641 143.841 18.3257 146.615 18.3257H152.734C157.099 18.3257 159.261 19.5339 159.261 21.9103V24.5684Z" fill="white"/>
<path d="M218.976 22.7962V17.6812H206.126C203.556 17.6812 202.332 18.7688 202.332 20.863V22.9978C202.332 25.0922 203.556 26.1795 206.126 26.1795H215.019C217.67 26.1795 218.976 25.0519 218.976 22.7962ZM205.963 28.2336C201.72 28.2336 199.64 26.5016 199.64 23.0782V20.9033C199.64 17.48 201.72 15.748 205.963 15.748H218.976V15.3451C218.976 12.9285 217.67 11.7203 214.978 11.7203H210.532C209.675 11.7203 209.267 11.3577 209.267 10.7133C209.267 10.0286 209.675 9.6662 210.532 9.6662H214.978C219.424 9.6662 221.627 11.5591 221.627 15.3451V22.8365C221.627 26.4211 219.465 28.2334 215.141 28.2334H205.963V28.2336Z" fill="white"/>
<path d="M228.48 11.7605V22.1919C228.48 24.81 230.152 26.1392 233.334 26.1392H239.453C242.635 26.1392 244.266 24.81 244.266 22.1919V15.7076C244.266 13.0896 242.635 11.7605 239.453 11.7605H228.48ZM233.416 28.2336C228.358 28.2336 225.788 26.2198 225.788 22.1919V1.04709C225.788 0.362405 226.277 0 227.134 0C228.031 0 228.48 0.362405 228.48 1.04709V9.66648H239.371C244.43 9.66648 247 11.6801 247 15.7078V22.1921C247 26.2198 244.43 28.2337 239.371 28.2337H233.416L233.416 28.2336Z" fill="white"/>
</g>
<defs>
<clipPath id="clip0">
<rect width="247" height="35" fill="white"/>
</clipPath>
</defs>
</svg>
