<svg width="21" height="16" viewBox="0 0 21 16" fill="none" xmlns="http://www.w3.org/2000/svg">
<path d="M20.2667 4.25387V13.2C20.2667 14.7467 19.0133 16 17.4667 16H2.8C2.05739 16 1.3452 15.705 0.820101 15.1799C0.294999 14.6548 0 13.9426 0 13.2V4.25387L9.81227 9.6512C10.0123 9.76107 10.2549 9.76107 10.4544 9.6512L20.2667 4.25333V4.25387ZM17.4667 1.20417e-08C18.1976 6.79229e-05 18.8995 0.285948 19.4225 0.796574C19.9455 1.3072 20.2481 2.00209 20.2656 2.7328L10.1333 8.30613L0.00106659 2.73227L0.00213343 2.68427C0.0320015 1.96227 0.339844 1.27978 0.861285 0.779507C1.38273 0.279238 2.07739 -6.69616e-05 2.8 1.20417e-08H17.4667Z" fill="#A00711"/>
</svg>
