<svg width="26" height="27" viewBox="0 0 26 27" fill="none" xmlns="http://www.w3.org/2000/svg">
<path d="M10.5687 15.4776C12.1272 17.0921 14.013 18.3386 16.0936 19.1295L18.9083 16.8423C18.9917 16.7836 19.0906 16.7522 19.192 16.7522C19.2933 16.7522 19.3922 16.7836 19.4757 16.8423L24.7019 20.2807C24.9003 20.4025 25.0682 20.5698 25.1925 20.7692C25.3167 20.9687 25.3938 21.195 25.4177 21.4301C25.4416 21.6653 25.4116 21.9028 25.3302 22.1241C25.2487 22.3454 25.1179 22.5443 24.9483 22.7051L22.4994 25.1753C22.1487 25.5291 21.7177 25.7888 21.2448 25.9311C20.7719 26.0735 20.2718 26.0941 19.7892 25.991C14.9753 24.9758 10.5382 22.598 6.98504 19.1295C3.51072 15.6265 1.10651 11.1692 0.0640477 6.29842C-0.0389339 5.81326 -0.0174402 5.30917 0.126446 4.83499C0.270332 4.36081 0.53173 3.93262 0.885309 3.59192L3.42375 1.09127C3.58084 0.926435 3.7724 0.800021 3.98411 0.721497C4.19582 0.642972 4.42218 0.614373 4.64625 0.63784C4.87031 0.661307 5.08627 0.736233 5.27796 0.857006C5.46965 0.97778 5.6321 1.14127 5.75315 1.33524L9.23231 6.60338C9.29232 6.6861 9.32471 6.78633 9.32471 6.88927C9.32471 6.99222 9.29232 7.09245 9.23231 7.17517L6.94024 9.9884C7.73581 12.0705 8.97528 13.9455 10.5687 15.4776Z" fill="#A00711"/>
</svg>
