<svg width="82" height="82" viewBox="0 0 82 82" fill="none" xmlns="http://www.w3.org/2000/svg">
<path d="M41 0.75C18.7727 0.75 0.75 18.7727 0.75 41C0.75 63.2273 18.7727 81.25 41 81.25C63.2273 81.25 81.25 63.2273 81.25 41C81.25 18.7727 63.2273 0.75 41 0.75ZM53.9465 41.6199L34.3246 55.8961C34.217 55.9734 34.0902 56.0195 33.9581 56.0295C33.826 56.0394 33.6938 56.0127 33.5759 55.9524C33.4579 55.892 33.3589 55.8003 33.2897 55.6874C33.2205 55.5744 33.1838 55.4446 33.1836 55.3121V26.7777C33.1832 26.645 33.2195 26.5147 33.2886 26.4014C33.3576 26.288 33.4567 26.196 33.5749 26.1356C33.693 26.0751 33.8256 26.0485 33.958 26.0588C34.0903 26.0691 34.2172 26.1158 34.3246 26.1938L53.9465 40.4609C54.0392 40.5265 54.1148 40.6133 54.167 40.7142C54.2192 40.815 54.2464 40.9269 54.2464 41.0404C54.2464 41.154 54.2192 41.2659 54.167 41.3667C54.1148 41.4675 54.0392 41.5544 53.9465 41.6199Z" fill="white"/>
</svg>
