<svg width="12" height="11" viewBox="0 0 12 11" fill="none" xmlns="http://www.w3.org/2000/svg">
<g clip-path="url(#clip0)">
<path d="M0.207579 5.13151L3.14208 6.47213C3.25558 6.52347 3.38958 6.5198 3.49808 6.46159L6.11008 5.06963L4.52908 6.35388C4.44858 6.41943 4.40258 6.51293 4.40258 6.61147V9.73959C4.40258 10.0696 4.86208 10.2085 5.07758 9.9463L6.34608 8.40034L9.48308 10.038C9.70308 10.1539 9.98508 10.0375 10.0361 9.80697L11.9926 0.869468C12.0511 0.600885 11.7596 0.381801 11.4886 0.481718L0.238579 4.50359C-0.063421 4.61176 -0.082921 4.99905 0.207579 5.13151ZM11.1226 1.35072L9.40308 9.20517L6.43058 7.65326C6.26858 7.56847 6.06008 7.60605 5.94508 7.74538L5.15258 8.71109V6.76593L9.42808 3.29359C9.76658 3.01905 9.37758 2.53093 8.99108 2.73901L3.29608 5.77409L1.30008 4.86247L11.1226 1.35072Z" fill="white"/>
</g>
<defs>
<clipPath id="clip0">
<rect width="12" height="11" fill="white"/>
</clipPath>
</defs>
</svg>
