<svg width="204" height="162" viewBox="0 0 204 162" fill="none" xmlns="http://www.w3.org/2000/svg">
<path d="M20.1431 147.84L23.6293 153.314L27.2664 150.998L23.8984 145.709L25.9396 144.409L29.3076 149.698L34.5777 146.342L35.9367 148.476L22.9471 156.748L18.1019 149.14L20.1431 147.84Z" fill="white"/>
<path d="M23.224 134.782C23.9421 134.319 24.4011 133.712 24.6008 132.96C24.7868 132.214 24.7176 131.416 24.3932 130.567C23.9431 129.389 23.1809 128.667 22.1064 128.402L22.4765 126.165C24.3572 126.609 25.6769 127.824 26.4357 129.81C27.0741 131.482 27.0826 133.025 26.4612 134.44C25.8261 135.86 24.7275 136.868 23.1656 137.465C21.631 138.051 20.1563 138.033 18.7415 137.412C17.3129 136.796 16.2951 135.693 15.6881 134.104C15.1125 132.596 15.169 131.162 15.8577 129.8C16.5412 128.424 17.6365 127.448 19.1436 126.873C19.3766 126.784 19.6953 126.694 20.0999 126.602L23.224 134.782ZM21.4232 135.493L19.1155 129.451C18.3373 129.92 17.8404 130.511 17.625 131.221C17.4044 131.917 17.4327 132.629 17.7101 133.355C18.024 134.177 18.5118 134.776 19.1732 135.151C19.8347 135.526 20.5847 135.64 21.4232 135.493Z" fill="white"/>
<path d="M18.0572 117.879C18.8554 117.574 19.4299 117.075 19.7804 116.381C20.1165 115.69 20.2136 114.895 20.0716 113.997C19.8746 112.751 19.2777 111.887 18.281 111.406L19.1052 109.294C20.8538 110.116 21.8941 111.577 22.2263 113.678C22.5057 115.445 22.1954 116.957 21.2951 118.213C20.3804 119.471 19.0974 120.231 17.4459 120.492C15.8234 120.749 14.3841 120.427 13.1281 119.527C11.8576 118.629 11.0895 117.34 10.8238 115.659C10.5718 114.066 10.9234 112.674 11.8785 111.483C12.8313 110.278 14.1045 109.55 15.698 109.298C15.9443 109.259 16.2748 109.236 16.6896 109.23L18.0572 117.879ZM16.1484 118.203L15.1382 111.814C14.2797 112.113 13.6717 112.588 13.3143 113.239C12.9545 113.875 12.8353 114.576 12.9567 115.344C13.0942 116.213 13.4477 116.9 14.0174 117.404C14.5871 117.908 15.2974 118.174 16.1484 118.203Z" fill="white"/>
<path d="M21.0137 102.24L4.9546 102.068L4.9801 99.6918L21.0392 99.8642L21.0137 102.24Z" fill="white"/>
<path d="M8.92314 87.996C9.17338 88.3269 9.27028 88.6957 9.21385 89.1025C9.15742 89.5093 8.96277 89.845 8.62989 90.1098C8.2845 90.358 7.90842 90.4539 7.50165 90.3975C7.09488 90.3411 6.76638 90.1474 6.51614 89.8165C6.25137 89.4837 6.1482 89.1066 6.20665 88.6853C6.2651 88.264 6.46702 87.9292 6.8124 87.681C7.14326 87.4308 7.51208 87.3339 7.91885 87.3903C8.32562 87.4467 8.66038 87.6486 8.92314 87.996ZM21.5806 92.0175L10.6849 90.5059L11.0114 88.1525L21.9071 89.6641L21.5806 92.0175Z" fill="white"/>
<path d="M14.2516 73.1305C14.6308 71.9275 15.322 71.0766 16.3251 70.5778C17.3281 70.079 18.5011 70.0413 19.8439 70.4647L26.2854 72.4955L25.5709 74.7616L19.3603 72.8035C18.577 72.5565 17.9093 72.5767 17.3574 72.864C16.8055 73.1514 16.4148 73.6587 16.1855 74.3861C15.9341 75.1834 15.9831 75.9062 16.3323 76.5546C16.6675 77.1985 17.3457 77.6814 18.3668 78.0034L23.9899 79.7762L23.2755 82.0423L12.7845 78.7347L13.499 76.4687L14.8418 76.892C13.9808 75.867 13.7841 74.6132 14.2516 73.1305Z" fill="white"/>
<path d="M23.7579 53.229L24.915 51.2044L34.0261 56.4113C35.4778 57.241 36.3191 58.3553 36.55 59.7542C36.781 61.1532 36.5071 62.5339 35.7284 63.8964C34.4695 66.0994 32.8367 67.1681 30.8301 67.1025L30.8139 64.7366C32.0782 64.8004 33.0997 64.151 33.8784 62.7885C34.3878 61.8971 34.5489 61.0685 34.3615 60.3026C34.1942 59.5312 33.6967 58.909 32.869 58.436L31.7039 57.7701C32.3678 59.18 32.2886 60.6044 31.4662 62.0434C30.6948 63.3932 29.566 64.2599 28.0797 64.6437C26.5807 65.0202 25.1499 64.8191 23.7874 64.0404C22.4248 63.2617 21.5317 62.1347 21.1079 60.6593C20.6714 59.1767 20.8388 57.7605 21.6102 56.4107C22.4326 54.9717 23.6196 54.1805 25.1714 54.0368L23.7579 53.229ZM27.5968 62.3406C28.5046 62.0823 29.2059 61.5202 29.7008 60.6543C30.1956 59.7884 30.3203 58.9052 30.0748 58.0047C29.8365 57.0915 29.2908 56.3911 28.4376 55.9035C27.5845 55.4159 26.704 55.3012 25.7962 55.5595C24.8957 55.8051 24.198 56.3608 23.7031 57.2267C23.2083 58.0926 23.08 58.9822 23.3182 59.8954C23.5638 60.7959 24.1131 61.4899 24.9663 61.9775C25.8195 62.4651 26.6963 62.5861 27.5968 62.3406Z" fill="white"/>
<path d="M33.9231 44.4632C34.1984 44.7053 34.5494 44.7504 34.9762 44.5984C35.4016 44.4256 35.8638 44.1778 36.3627 43.8548C36.8603 43.5112 37.3799 43.1869 37.9215 42.8821C38.4632 42.5772 39.052 42.4407 39.688 42.4727C40.3226 42.484 40.9208 42.7367 41.4824 43.2307C42.2753 43.9282 42.6263 44.7838 42.5354 45.7977C42.4541 46.8005 42.0066 47.7645 41.1929 48.6896C40.4761 49.5045 39.6903 50.0537 38.8355 50.337C37.9807 50.6204 37.1343 50.6279 36.2961 50.3594L36.7554 48.0385C37.8001 48.4496 38.7342 48.1872 39.5576 47.2511C40.3809 46.315 40.4843 45.5757 39.8676 45.0333C39.6033 44.8008 39.2529 44.7661 38.8165 44.9291C38.3898 45.0812 37.9276 45.329 37.43 45.6727C36.9311 45.9956 36.4108 46.3095 35.8691 46.6144C35.3275 46.9193 34.7449 47.0709 34.1212 47.0693C33.4963 47.047 32.9085 46.7937 32.3578 46.3093C31.598 45.6409 31.2386 44.817 31.2798 43.8375C31.3307 42.847 31.7339 41.9222 32.4894 41.0632C33.09 40.3805 33.777 39.9104 34.5503 39.653C35.3223 39.3749 36.104 39.33 36.8955 39.5184L36.4157 41.7626C35.5361 41.4968 34.767 41.7383 34.1083 42.4872C33.808 42.8286 33.6332 43.1827 33.584 43.5496C33.5237 43.9068 33.6368 44.2113 33.9231 44.4632Z" fill="white"/>
<path d="M57.0917 34.3943L48.4761 20.841L50.4812 19.5663L59.0969 33.1197L57.0917 34.3943Z" fill="white"/>
<path d="M69.5992 15.7115L71.7941 14.8018L76.0057 24.9636L73.8108 25.8733L73.2043 24.41C72.8551 25.9042 71.9082 26.9714 70.3636 27.6116C68.9681 28.19 67.5624 28.1693 66.1465 27.5495C64.725 26.9161 63.7055 25.8542 63.0877 24.3638C62.4644 22.8599 62.4339 21.3881 62.9962 19.9484C63.5585 18.5088 64.5375 17.4997 65.933 16.9213C67.4776 16.2812 68.899 16.3589 70.1972 17.1545L69.5992 15.7115ZM67.1659 25.4123C68.0283 25.7693 68.9202 25.7569 69.8415 25.375C70.7629 24.9932 71.4021 24.3711 71.7591 23.5087C72.1105 22.6327 72.0924 21.7273 71.705 20.7924C71.3175 19.8575 70.6926 19.2116 69.8302 18.8545C68.9621 18.484 68.0675 18.4896 67.1461 18.8715C66.2248 19.2533 65.5884 19.8822 65.237 20.7582C64.88 21.6206 64.8952 22.5192 65.2827 23.4541C65.6702 24.389 66.2979 25.0417 67.1659 25.4123Z" fill="white"/>
<path d="M86.5727 10.9488C88.0608 10.6882 89.4282 11.0146 90.6751 11.9279C91.922 12.8412 92.6858 14.0997 92.9666 15.7033C93.2448 17.2924 92.9541 18.7356 92.0942 20.0326C91.2318 21.3152 90.0566 22.0868 88.5686 22.3474C86.9217 22.6358 85.5501 22.2431 84.4538 21.1694L84.727 22.7297L82.3866 23.1395L79.7305 7.97027L82.0709 7.56047L83.0992 13.4331C83.7679 12.0653 84.9258 11.2372 86.5727 10.9488ZM85.1899 19.6335C85.9538 20.1697 86.827 20.3519 87.8094 20.1798C88.7918 20.0078 89.5511 19.5399 90.0874 18.7759C90.6211 17.9975 90.8007 17.1099 90.6262 16.1131C90.4516 15.1162 89.9824 14.3497 89.2185 13.8134C88.452 13.2627 87.5776 13.0733 86.5952 13.2453C85.6128 13.4174 84.8547 13.8926 84.321 14.6709C83.7847 15.4349 83.6038 16.3153 83.7784 17.3121C83.9529 18.3089 84.4234 19.0827 85.1899 19.6335Z" fill="white"/>
<path d="M121.356 10.0054L114.951 8.96002L114.256 13.2157L120.445 14.2257L120.055 16.6141L113.867 15.6041L112.86 21.7705L110.363 21.363L112.844 6.16409L121.746 7.61703L121.356 10.0054Z" fill="white"/>
<path d="M129.045 21.0009C128.912 21.8448 129.059 22.5914 129.487 23.2408C129.919 23.8765 130.561 24.3563 131.41 24.68C132.589 25.1291 133.635 25.041 134.548 24.4158L135.97 26.1819C134.387 27.2895 132.602 27.4646 130.614 26.7075C128.942 26.0704 127.785 25.049 127.144 23.6431C126.508 22.2236 126.487 20.7326 127.082 19.1701C127.667 17.6351 128.663 16.5468 130.068 15.9053C131.48 15.2501 132.98 15.2253 134.57 15.8311C136.077 16.4055 137.11 17.4031 137.667 18.8239C138.238 20.25 138.237 21.7169 137.662 23.2245C137.573 23.4575 137.429 23.7554 137.228 24.1183L129.045 21.0009ZM129.714 19.1839L135.758 21.4867C135.926 20.5932 135.817 19.8296 135.43 19.1959C135.058 18.5674 134.508 18.1147 133.782 17.838C132.959 17.5247 132.188 17.4897 131.467 17.7331C130.747 17.9765 130.162 18.4601 129.714 19.1839Z" fill="white"/>
<path d="M145.095 28.4042C144.791 29.2024 144.78 29.9633 145.064 30.687C145.357 31.3984 145.885 32.0002 146.649 32.4924C147.71 33.1752 148.751 33.305 149.774 32.8819L150.801 34.9037C149.023 35.6603 147.24 35.463 145.452 34.3118C143.947 33.3432 143.026 32.1048 142.689 30.5968C142.36 29.0765 142.648 27.6134 143.553 26.2075C144.442 24.8264 145.641 23.9671 147.149 23.6297C148.664 23.28 150.138 23.5657 151.568 24.4867C152.925 25.36 153.729 26.5494 153.981 28.0547C154.245 29.5679 153.94 31.0028 153.067 32.3593C152.932 32.569 152.729 32.8306 152.457 33.1441L145.095 28.4042ZM146.125 26.7645L151.563 30.2658C151.912 29.4262 151.962 28.6565 151.715 27.9566C151.48 27.2647 151.036 26.7083 150.383 26.2876C149.643 25.8112 148.895 25.6177 148.14 25.707C147.385 25.7964 146.713 26.1489 146.125 26.7645Z" fill="white"/>
<path d="M154.791 41.025L165.615 29.1607L167.371 30.7621L156.546 42.6264L154.791 41.025Z" fill="white"/>
<path d="M173.469 41.4926C173.056 41.4589 172.716 41.2856 172.45 40.9726C172.185 40.6596 172.064 40.2907 172.088 39.8661C172.133 39.4431 172.312 39.0987 172.625 38.8329C172.938 38.567 173.301 38.451 173.714 38.4847C174.139 38.5089 174.489 38.683 174.764 39.0072C175.04 39.3314 175.155 39.705 175.11 40.128C175.076 40.5414 174.903 40.8811 174.59 41.1469C174.277 41.4128 173.903 41.528 173.469 41.4926ZM162.04 48.256L170.424 41.1352L171.962 42.9462L163.578 50.067L162.04 48.256Z" fill="white"/>
<path d="M181.009 55.3683C181.654 56.4524 181.829 57.5347 181.533 58.6151C181.237 59.6955 180.483 60.5956 179.273 61.3153L173.468 64.7677L172.254 62.7256L177.851 59.3969C178.557 58.9771 178.986 58.4656 179.14 57.8625C179.293 57.2594 179.175 56.6301 178.785 55.9746C178.357 55.2561 177.786 54.8112 177.069 54.6399C176.366 54.4611 175.554 54.6453 174.634 55.1926L169.566 58.2064L168.352 56.1643L177.806 50.5415L179.021 52.5836L177.81 53.3033C179.148 53.3438 180.215 54.0321 181.009 55.3683Z" fill="white"/>
<path d="M189.523 75.7139L190.263 77.9255L180.311 81.2539C178.725 81.7842 177.333 81.6697 176.136 80.9102C174.939 80.1508 174.091 79.0269 173.593 77.5386C172.789 75.1323 173.079 73.2026 174.464 71.7495L176.24 73.3131C175.35 74.2137 175.154 75.4082 175.652 76.8965C175.978 77.8702 176.489 78.5422 177.185 78.9125C177.871 79.3014 178.667 79.3447 179.571 79.0423L180.844 78.6167C179.35 78.1729 178.34 77.1652 177.814 75.5934C177.321 74.119 177.427 72.6997 178.13 71.3354C178.848 69.9665 179.951 69.0331 181.439 68.5354C182.927 68.0376 184.363 68.122 185.746 68.7885C187.142 69.4503 188.087 70.5185 188.58 71.9928C189.106 73.5646 188.906 74.9771 187.979 76.2303L189.523 75.7139ZM180.17 72.5091C179.758 73.3583 179.71 74.2558 180.026 75.2016C180.343 76.1474 180.918 76.8287 181.754 77.2452C182.594 77.6757 183.48 77.7352 184.411 77.4235C185.343 77.1118 186.015 76.5314 186.427 75.6822C186.844 74.847 186.894 73.9564 186.578 73.0106C186.261 72.0647 185.683 71.3766 184.843 70.9461C184.008 70.5295 183.124 70.477 182.192 70.7887C181.261 71.1004 180.586 71.6738 180.17 72.5091Z" fill="white"/>
<path d="M189.292 89.1347C188.928 89.1788 188.66 89.4107 188.49 89.8302C188.335 90.2626 188.212 90.7724 188.121 91.3597C188.046 91.9597 187.942 92.5633 187.808 93.1704C187.675 93.7775 187.385 94.3076 186.937 94.7606C186.506 95.2265 185.919 95.5044 185.177 95.5944C184.128 95.7213 183.256 95.4133 182.56 94.6702C181.867 93.9417 181.446 92.9659 181.297 91.7428C181.167 90.6653 181.281 89.7134 181.639 88.8871C181.996 88.0607 182.555 87.4243 183.313 86.9779L184.739 88.8662C183.736 89.3718 183.31 90.2433 183.46 91.481C183.609 92.7186 184.092 93.288 184.907 93.1893C185.257 93.1469 185.516 92.9087 185.685 92.4746C185.856 92.055 185.979 91.5452 186.054 90.9451C186.145 90.3579 186.258 89.7607 186.391 89.1536C186.524 88.5465 186.799 88.0109 187.216 87.5468C187.649 87.0955 188.229 86.8258 188.957 86.7376C189.962 86.6159 190.816 86.8966 191.519 87.5797C192.224 88.2773 192.645 89.194 192.783 90.3297C192.892 91.2324 192.785 92.0579 192.462 92.8062C192.155 93.5673 191.668 94.1803 191.001 94.6453L189.646 92.7927C190.43 92.3136 190.762 91.579 190.642 90.5889C190.588 90.1375 190.44 89.7713 190.199 89.4902C189.973 89.2074 189.67 89.0889 189.292 89.1347Z" fill="white"/>
<path d="M181.372 113.123L197.22 115.723L196.835 118.068L180.987 115.468L181.372 113.123Z" fill="white"/>
<path d="M186.978 134.896L186.195 137.139L175.81 133.513L176.593 131.27L178.088 131.792C177.206 130.536 177.041 129.119 177.592 127.541C178.09 126.114 179.042 125.08 180.447 124.436C181.866 123.798 183.338 123.744 184.861 124.276C186.398 124.813 187.516 125.77 188.215 127.149C188.915 128.527 189.015 129.929 188.517 131.355C187.966 132.934 186.962 133.943 185.503 134.381L186.978 134.896ZM181.362 126.62C180.522 127.026 179.937 127.699 179.608 128.641C179.279 129.582 179.318 130.473 179.723 131.314C180.143 132.16 180.83 132.749 181.786 133.083C182.741 133.416 183.639 133.381 184.48 132.975C185.334 132.574 185.926 131.903 186.255 130.962C186.584 130.02 186.538 129.126 186.119 128.281C185.713 127.44 185.033 126.853 184.077 126.519C183.122 126.186 182.217 126.219 181.362 126.62Z" fill="white"/>
<path d="M179.226 150.729C178.43 152.013 177.276 152.815 175.764 153.137C174.252 153.459 172.805 153.191 171.421 152.332C170.051 151.481 169.168 150.303 168.773 148.798C168.391 147.301 168.598 145.91 169.394 144.626C170.276 143.206 171.483 142.444 173.014 142.342L171.668 141.506L172.921 139.487L186.005 147.609L184.752 149.628L179.687 146.484C180.262 147.893 180.108 149.309 179.226 150.729ZM173.669 143.914C172.76 144.126 172.043 144.656 171.517 145.504C170.991 146.351 170.834 147.229 171.047 148.138C171.272 149.055 171.815 149.78 172.675 150.313C173.534 150.847 174.419 151.008 175.328 150.795C176.249 150.59 176.972 150.064 177.498 149.216C178.024 148.369 178.175 147.487 177.95 146.571C177.737 145.662 177.201 144.94 176.341 144.407C175.481 143.873 174.59 143.709 173.669 143.914Z" fill="white"/>
</svg>
