<svg width="177" height="178" viewBox="0 0 177 178" fill="none" xmlns="http://www.w3.org/2000/svg">
<g filter="url(#filter0_d)">
<path d="M91.6452 165.195C91.2815 162.209 93.4123 159.478 96.3993 159.113C99.4039 158.75 102.117 160.88 102.482 163.883C102.846 166.869 100.715 169.6 97.7287 169.964C97.4913 169.982 97.2734 170 97.0547 170C94.3406 170 91.9734 167.962 91.6452 165.195ZM57.061 165.085C54.2377 164.011 52.8175 160.861 53.8916 158.04C54.9481 155.218 58.0988 153.798 60.9221 154.854C63.7446 155.927 65.1648 159.077 64.1094 161.899C63.2717 164.083 61.1953 165.431 58.9916 165.431C58.3541 165.431 57.6987 165.322 57.061 165.085ZM128.398 154.034C126.686 151.559 127.304 148.154 129.782 146.425C132.259 144.714 135.664 145.332 137.376 147.808C139.106 150.284 138.487 153.688 136.011 155.418C135.045 156.073 133.971 156.383 132.896 156.383C131.166 156.383 129.454 155.564 128.398 154.034ZM23.3501 141.855C21.3287 139.598 21.5475 136.138 23.7875 134.136C26.0455 132.134 29.5065 132.334 31.5091 134.591C33.5126 136.848 33.3123 140.307 31.0538 142.31C30.0161 143.239 28.723 143.694 27.4299 143.694C25.9184 143.694 24.4253 143.074 23.3501 141.855ZM155.77 127.072C153.093 125.652 152.073 122.357 153.475 119.681C154.878 117.023 158.174 115.985 160.851 117.387C163.529 118.789 164.549 122.102 163.146 124.76C162.163 126.636 160.268 127.692 158.302 127.692C157.446 127.692 156.572 127.491 155.77 127.072ZM4.22736 105.644C3.51777 102.714 5.30256 99.7466 8.23448 99.0362C11.1487 98.3082 14.1169 100.092 14.8451 103.023C15.5734 105.936 13.7708 108.903 10.8567 109.632C10.4201 109.741 9.96507 109.796 9.52733 109.796C7.08725 109.796 4.84716 108.121 4.22736 105.644ZM161.999 85.0187C161.999 84.9637 161.999 84.9095 161.999 84.8729C161.999 84.8179 161.999 84.7637 161.999 84.7271C161.98 81.7049 164.42 79.2471 167.444 79.2471C170.468 79.2292 172.908 81.6684 172.926 84.673C172.926 84.745 172.926 84.8 172.926 84.8542C172.926 84.9095 172.926 84.9637 172.926 85.0187C172.926 88.0403 170.485 90.4803 167.463 90.4803C164.439 90.4803 161.999 88.0403 161.999 85.0187ZM8.18002 71.3097C5.24749 70.5996 3.44488 67.6509 4.15446 64.7191C4.86508 61.7885 7.83337 59.9866 10.7662 60.6959C13.6979 61.4062 15.4826 64.3734 14.7722 67.3052C14.1711 69.7985 11.9311 71.4742 9.47314 71.4742C9.03566 71.4742 8.61698 71.4192 8.18002 71.3097ZM153.33 50.0831C151.927 47.4242 152.947 44.13 155.606 42.7095C158.265 41.2899 161.58 42.3094 162.983 44.9672C164.403 47.6428 163.383 50.9381 160.724 52.3586C159.904 52.7951 159.03 52.9953 158.174 52.9953C156.207 52.9953 154.313 51.9392 153.33 50.0831ZM23.6054 36.1376C21.3475 34.1349 21.1287 30.6939 23.1322 28.4368C25.117 26.1613 28.5772 25.961 30.836 27.9453C33.0936 29.948 33.3123 33.3882 31.3276 35.6637C30.2348 36.8843 28.7408 37.5031 27.2112 37.5031C25.9369 37.5031 24.6431 37.0479 23.6054 36.1376ZM129.545 23.4303C127.05 21.737 126.413 18.3325 128.124 15.8389C129.836 13.3623 133.242 12.726 135.719 14.4371C138.214 16.1483 138.851 19.5341 137.139 22.0285C136.083 23.5761 134.371 24.3948 132.622 24.3948C131.567 24.3948 130.492 24.0854 129.545 23.4303ZM53.6008 12.125C52.5258 9.30275 53.9282 6.15323 56.7515 5.07928C59.574 4.00561 62.7247 5.40739 63.8175 8.2288C64.8919 11.0502 63.4717 14.1998 60.6671 15.2746C60.0117 15.5287 59.3553 15.6381 58.6999 15.6381C56.5141 15.6381 54.4385 14.3092 53.6008 12.125ZM96.1074 10.8866C93.1206 10.5409 90.9719 7.82782 91.3181 4.82434C91.6639 1.83927 94.3955 -0.309193 97.3826 0.0365084C100.388 0.382188 102.518 3.09529 102.172 6.09905C101.844 8.8839 99.4948 10.9232 96.763 10.9232C96.5452 10.9232 96.3264 10.9053 96.1074 10.8866Z" fill="#FF8F96"/>
<path d="M90.8626 150.612C90.5531 148.172 92.3015 145.933 94.7592 145.642C97.2004 145.35 99.4405 147.098 99.7321 149.538C100.023 151.996 98.2745 154.216 95.8344 154.508C95.6523 154.544 95.4699 154.544 95.2875 154.544C93.0661 154.544 91.1356 152.887 90.8626 150.612ZM62.561 150.521C60.248 149.647 59.0822 147.061 59.9751 144.768C60.8304 142.456 63.4165 141.29 65.7295 142.164C68.0425 143.038 69.2082 145.624 68.3341 147.917C67.6422 149.72 65.9483 150.812 64.1457 150.812C63.6174 150.812 63.0892 150.721 62.561 150.521ZM120.93 141.491C119.528 139.452 120.038 136.666 122.06 135.264C124.1 133.863 126.868 134.373 128.288 136.393C129.69 138.414 129.181 141.217 127.159 142.619C126.376 143.147 125.483 143.402 124.609 143.402C123.189 143.402 121.804 142.729 120.93 141.491ZM34.9699 131.515C33.3301 129.676 33.4947 126.854 35.3523 125.215C37.1912 123.577 40.0148 123.741 41.6537 125.579C43.2927 127.419 43.129 130.24 41.2889 131.897C40.4336 132.643 39.3771 133.025 38.3206 133.025C37.082 133.025 35.8618 132.516 34.9699 131.515ZM143.332 119.426C141.146 118.261 140.289 115.567 141.455 113.382C142.602 111.198 145.298 110.36 147.484 111.507C149.669 112.654 150.507 115.367 149.36 117.533C148.558 119.062 147.011 119.936 145.407 119.936C144.698 119.936 143.987 119.772 143.332 119.426ZM19.3439 101.895C18.7428 99.4913 20.218 97.0697 22.6039 96.4875C25.0076 95.8866 27.4298 97.3437 28.031 99.7465C28.6134 102.132 27.1569 104.571 24.7523 105.154C24.3886 105.244 24.0428 105.281 23.6782 105.281C21.6745 105.281 19.8535 103.933 19.3439 101.895ZM148.413 85.0186H148.431C148.431 84.9999 148.431 84.9823 148.431 84.9458C148.431 84.8908 148.413 84.8366 148.413 84.7813C148.413 82.3058 150.398 80.3028 152.874 80.2853C155.351 80.2853 157.354 82.2693 157.354 84.745C157.354 84.8 157.354 84.8366 157.354 84.8908C157.354 84.927 157.354 84.9823 157.354 85.0186C157.354 87.4944 155.37 89.4971 152.893 89.4971C150.415 89.4971 148.413 87.4944 148.413 85.0186ZM22.5676 73.8041C20.163 73.2216 18.6886 70.8004 19.2886 68.3967C19.2886 68.3967 19.2886 68.3967 19.2711 68.3967C19.8722 66.0125 22.2756 64.5379 24.6794 65.1201C27.084 65.7023 28.5405 68.1239 27.9759 70.5275C27.4664 72.5657 25.6451 73.9312 23.6238 73.9312C23.2771 73.9312 22.9134 73.8946 22.5676 73.8041ZM141.328 56.4363C140.181 54.2513 141 51.5569 143.186 50.3925C145.371 49.2448 148.066 50.0644 149.232 52.2494C150.398 54.4333 149.56 57.1464 147.374 58.2932C146.719 58.6389 145.991 58.8213 145.28 58.8213C143.695 58.8213 142.147 57.9473 141.328 56.4363ZM35.1878 45.0216C33.3301 43.4009 33.1664 40.5607 34.8054 38.7225C36.4266 36.8656 39.2491 36.6832 41.1068 38.3215C42.9644 39.9609 43.129 42.7824 41.5079 44.6393C40.6149 45.6401 39.3771 46.1505 38.1385 46.1505C37.1007 46.1505 36.0442 45.7683 35.1878 45.0216ZM121.859 34.6442C119.82 33.2433 119.31 30.4573 120.712 28.418C122.114 26.3799 124.882 25.8697 126.922 27.2715C128.962 28.6554 129.472 31.4405 128.088 33.4795C127.214 34.7358 125.811 35.4272 124.39 35.4272C123.516 35.4272 122.642 35.1722 121.859 34.6442ZM59.7376 25.3779C58.8457 23.0846 60.0116 20.4997 62.3059 19.6072C64.6188 18.7332 67.2047 19.88 68.0788 22.1921C68.9716 24.4863 67.8059 27.0713 65.5117 27.9629C64.9834 28.1639 64.4364 28.2547 63.9082 28.2547C62.1056 28.2547 60.4117 27.162 59.7376 25.3779ZM94.5229 24.3585C92.0641 24.0853 90.3157 21.8649 90.5897 19.407C90.8806 16.9491 93.1027 15.2016 95.5615 15.4932C98.0016 15.7839 99.7676 18.0052 99.4768 20.4444C99.2039 22.7201 97.2733 24.3947 95.0333 24.3947C94.8687 24.3947 94.6874 24.3947 94.5229 24.3585Z" fill="#FF8F96"/>
<path d="M90.189 138.16C89.9524 136.175 91.3547 134.373 93.3397 134.136C95.3244 133.899 97.1458 135.301 97.383 137.304C97.6196 139.27 96.1985 141.09 94.2138 141.327C94.0679 141.346 93.9221 141.346 93.7772 141.346C91.9737 141.346 90.4077 139.998 90.189 138.16ZM67.2602 138.087C65.3838 137.377 64.4556 135.283 65.1651 133.426C65.8757 131.551 67.9521 130.605 69.8276 131.314C71.704 132.024 72.6323 134.118 71.9406 135.975C71.3945 137.432 70.0098 138.323 68.5533 138.323C68.1158 138.323 67.6792 138.25 67.2602 138.087ZM114.556 130.768C113.409 129.111 113.828 126.872 115.467 125.725C117.106 124.596 119.365 124.997 120.512 126.636C121.641 128.293 121.24 130.549 119.601 131.678C118.964 132.115 118.254 132.316 117.525 132.316C116.378 132.316 115.248 131.788 114.556 130.768ZM44.9141 122.685C43.5847 121.192 43.7118 118.916 45.2049 117.587C46.6989 116.258 48.9931 116.386 50.3224 117.879C51.6521 119.371 51.5247 121.666 50.0316 122.995C49.3392 123.596 48.4836 123.905 47.6271 123.905C46.6259 123.905 45.6236 123.504 44.9141 122.685ZM132.696 112.891C130.93 111.962 130.238 109.777 131.184 107.993C132.113 106.228 134.299 105.554 136.065 106.483C137.832 107.411 138.524 109.596 137.594 111.361C136.939 112.599 135.683 113.31 134.371 113.31C133.807 113.31 133.243 113.164 132.696 112.891ZM32.2564 98.6905C31.7645 96.7428 32.9481 94.7765 34.8974 94.3029C36.828 93.8298 38.7942 95.013 39.2859 96.9428C39.7599 98.8905 38.5763 100.857 36.6271 101.33C36.3363 101.403 36.0446 101.44 35.7717 101.44C34.1328 101.44 32.6573 100.348 32.2564 98.6905ZM136.83 85.0187C136.83 84.9824 136.83 84.9458 136.83 84.9095C136.83 84.8908 136.83 84.8542 136.83 84.8179C136.812 82.8161 138.433 81.1954 140.436 81.1954C142.439 81.1769 144.06 82.7974 144.078 84.8001C144.078 84.8367 144.06 84.873 144.06 84.9095C144.06 84.9458 144.078 84.9824 144.078 85.0187C144.078 87.0206 142.439 88.6413 140.454 88.6413C138.451 88.6413 136.83 87.0206 136.83 85.0187ZM34.8611 75.934C32.9118 75.4609 31.7282 73.4948 32.202 71.565C32.6752 69.6173 34.6245 68.4333 36.5729 68.8882C38.5213 69.3799 39.7049 71.3285 39.2317 73.2762C38.8306 74.9329 37.3562 76.0434 35.7164 76.0434C35.4435 76.0434 35.1518 76.0068 34.8611 75.934ZM131.093 61.8614C130.146 60.0961 130.82 57.911 132.586 56.982C134.353 56.0354 136.539 56.7092 137.486 58.4754C138.414 60.2407 137.759 62.4258 135.992 63.3727C135.446 63.6642 134.863 63.7913 134.28 63.7913C132.987 63.7913 131.731 63.0996 131.093 61.8614ZM45.0965 52.613C43.5847 51.2841 43.4389 49.0083 44.7683 47.5158C46.0977 46.0046 48.3743 45.8588 49.8858 47.188C51.3789 48.5169 51.5247 50.7924 50.1954 52.3036C49.485 53.1045 48.4836 53.5233 47.4813 53.5233C46.6259 53.5233 45.7695 53.2327 45.0965 52.613ZM115.303 44.2021C113.665 43.074 113.246 40.816 114.374 39.1599C115.503 37.5207 117.762 37.1021 119.401 38.2311C121.059 39.3601 121.478 41.6169 120.348 43.256C119.638 44.2934 118.508 44.8393 117.361 44.8393C116.651 44.8393 115.941 44.6215 115.303 44.2021ZM64.9651 36.702C64.2547 34.8264 65.2017 32.7329 67.0593 32.0228C68.9357 31.3135 71.0299 32.2414 71.7403 34.1171C72.4501 35.974 71.5216 38.0675 69.6461 38.7955C69.2274 38.9591 68.7899 39.032 68.3524 39.032C66.8956 39.032 65.5297 38.1404 64.9651 36.702ZM93.1573 35.8824C91.1726 35.6459 89.7516 33.8434 89.9703 31.8592C90.2069 29.8752 92.01 28.4547 93.995 28.692C95.9807 28.9098 97.4008 30.7126 97.1643 32.7153C96.9642 34.5535 95.3973 35.9012 93.576 35.9012C93.4302 35.9012 93.3031 35.9012 93.1573 35.8824Z" fill="#FF8F96"/>
</g>
<defs>
<filter id="filter0_d" x="0" y="0" width="176.926" height="178" filterUnits="userSpaceOnUse" color-interpolation-filters="sRGB">
<feFlood flood-opacity="0" result="BackgroundImageFix"/>
<feColorMatrix in="SourceAlpha" type="matrix" values="0 0 0 0 0 0 0 0 0 0 0 0 0 0 0 0 0 0 127 0" result="hardAlpha"/>
<feOffset dy="4"/>
<feGaussianBlur stdDeviation="2"/>
<feComposite in2="hardAlpha" operator="out"/>
<feColorMatrix type="matrix" values="0 0 0 0 0 0 0 0 0 0 0 0 0 0 0 0 0 0 0.25 0"/>
<feBlend mode="normal" in2="BackgroundImageFix" result="effect1_dropShadow"/>
<feBlend mode="normal" in="SourceGraphic" in2="effect1_dropShadow" result="shape"/>
</filter>
</defs>
</svg>
