<svg width="177" height="178" fill="none" xmlns="http://www.w3.org/2000/svg"><g filter="url(#filter0_d)" fill="#FF8F96"><path d="M91.645 165.195c-.364-2.986 1.767-5.717 4.754-6.082a5.458 5.458 0 016.083 4.77c.364 2.986-1.767 5.717-4.753 6.081-.238.018-.456.036-.674.036-2.714 0-5.082-2.038-5.41-4.805zm-34.584-.11a5.458 5.458 0 01-3.17-7.045c1.057-2.822 4.208-4.242 7.031-3.186a5.483 5.483 0 013.187 7.045 5.49 5.49 0 01-7.048 3.186zm71.337-11.051c-1.712-2.475-1.094-5.88 1.384-7.609a5.464 5.464 0 017.594 1.383c1.73 2.476 1.111 5.88-1.365 7.61a5.51 5.51 0 01-3.115.965 5.457 5.457 0 01-4.498-2.349zM23.35 141.855c-2.021-2.257-1.803-5.717.438-7.719 2.258-2.002 5.718-1.802 7.721.455a5.468 5.468 0 01-.455 7.719 5.409 5.409 0 01-3.624 1.384 5.413 5.413 0 01-4.08-1.839zm132.42-14.783a5.478 5.478 0 01-2.295-7.391 5.472 5.472 0 017.376-2.294 5.456 5.456 0 012.295 7.373 5.45 5.45 0 01-4.844 2.932c-.856 0-1.73-.201-2.532-.62zM4.227 105.644c-.71-2.93 1.076-5.897 4.007-6.608 2.915-.728 5.883 1.056 6.611 3.987.728 2.913-1.074 5.88-3.988 6.609a5.541 5.541 0 01-1.33.164 5.493 5.493 0 01-5.3-4.152zM162 85.019v-.292a5.442 5.442 0 015.445-5.48 5.451 5.451 0 015.482 5.426v.346a5.456 5.456 0 01-5.463 5.461A5.455 5.455 0 01162 85.019zM8.18 71.309a5.46 5.46 0 01-4.026-6.59c.711-2.93 3.68-4.732 6.612-4.023 2.932.71 4.717 3.677 4.006 6.61-.6 2.493-2.84 4.168-5.299 4.168-.437 0-.856-.055-1.293-.164zm145.15-21.226c-1.403-2.659-.383-5.953 2.276-7.373a5.45 5.45 0 017.377 2.257 5.467 5.467 0 01-2.259 7.392 5.468 5.468 0 01-7.394-2.276zM23.605 36.138c-2.258-2.003-2.476-5.444-.473-7.701 1.985-2.276 5.445-2.476 7.704-.492a5.487 5.487 0 01.492 7.719 5.483 5.483 0 01-4.117 1.84 5.473 5.473 0 01-3.606-1.366zm105.94-12.708c-2.495-1.693-3.132-5.098-1.421-7.591 1.712-2.477 5.118-3.113 7.595-1.402a5.448 5.448 0 011.42 7.592c-1.056 1.547-2.768 2.366-4.517 2.366-1.055 0-2.13-.31-3.077-.965zM53.601 12.125a5.449 5.449 0 013.15-7.046 5.48 5.48 0 017.067 3.15 5.465 5.465 0 01-5.118 7.41 5.465 5.465 0 01-5.1-3.514zm42.506-1.238c-2.986-.346-5.135-3.06-4.789-6.063.346-2.985 3.078-5.133 6.065-4.787 3.005.345 5.135 3.058 4.789 6.062a5.45 5.45 0 01-6.065 4.788zm-5.244 139.725c-.31-2.44 1.439-4.679 3.896-4.97 2.441-.292 4.681 1.456 4.973 3.896a4.469 4.469 0 01-3.898 4.97c-.182.036-.364.036-.547.036a4.462 4.462 0 01-4.424-3.932zm-28.302-.091c-2.313-.874-3.479-3.46-2.586-5.753.855-2.312 3.441-3.478 5.755-2.604 2.313.874 3.478 3.46 2.604 5.753a4.482 4.482 0 01-5.773 2.604zm58.369-9.03a4.486 4.486 0 011.13-6.227 4.493 4.493 0 016.228 1.129c1.402 2.021.893 4.824-1.129 6.226a4.561 4.561 0 01-2.55.783 4.495 4.495 0 01-3.679-1.911zm-85.96-9.976a4.447 4.447 0 01.382-6.3 4.467 4.467 0 016.302.364c1.639 1.84 1.475 4.661-.365 6.318a4.515 4.515 0 01-2.968 1.128 4.464 4.464 0 01-3.351-1.51zm108.362-12.089c-2.186-1.165-3.043-3.859-1.877-6.044a4.463 4.463 0 016.029-1.875c2.185 1.147 3.023 3.86 1.876 6.026a4.462 4.462 0 01-6.028 1.893zM19.344 101.895a4.455 4.455 0 013.26-5.407 4.47 4.47 0 015.427 3.258c.582 2.386-.874 4.825-3.279 5.408-.363.09-.71.127-1.074.127a4.465 4.465 0 01-4.334-3.386zm129.069-16.876h.018v-.073c0-.055-.018-.11-.018-.165a4.487 4.487 0 014.461-4.496 4.46 4.46 0 014.48 4.46v.274a4.46 4.46 0 01-4.461 4.478 4.475 4.475 0 01-4.48-4.478zM22.568 73.804a4.453 4.453 0 01-3.28-5.407h-.017c.601-2.385 3.005-3.86 5.408-3.277 2.405.582 3.862 3.004 3.297 5.407a4.486 4.486 0 01-5.408 3.277zm118.76-17.368a4.477 4.477 0 011.858-6.044 4.48 4.48 0 016.046 1.857 4.456 4.456 0 01-1.858 6.044 4.52 4.52 0 01-2.094.528c-1.585 0-3.133-.874-3.952-2.385zM35.188 45.022c-1.858-1.621-2.022-4.461-.383-6.3a4.45 4.45 0 016.302-.4 4.486 4.486 0 01.4 6.317 4.507 4.507 0 01-3.368 1.511 4.506 4.506 0 01-2.951-1.128zm86.671-10.378a4.474 4.474 0 01-1.147-6.226 4.455 4.455 0 016.21-1.146c2.04 1.383 2.55 4.169 1.166 6.208a4.516 4.516 0 01-3.698 1.947 4.502 4.502 0 01-2.531-.783zm-62.121-9.266c-.892-2.293.274-4.878 2.568-5.77 2.313-.875 4.899.272 5.773 2.584.893 2.294-.273 4.88-2.567 5.77a4.514 4.514 0 01-1.604.293 4.451 4.451 0 01-4.17-2.877zm34.785-1.02c-2.459-.273-4.207-2.493-3.933-4.951a4.468 4.468 0 014.971-3.914c2.44.29 4.207 2.512 3.916 4.951a4.481 4.481 0 01-4.444 3.95c-.164 0-.346 0-.51-.035zM90.189 138.16a3.61 3.61 0 013.15-4.024c1.985-.237 3.807 1.165 4.044 3.168.237 1.966-1.184 3.786-3.17 4.023-.145.019-.29.019-.436.019a3.618 3.618 0 01-3.588-3.186zm-22.929-.073a3.608 3.608 0 01-2.095-4.661 3.613 3.613 0 014.663-2.112 3.631 3.631 0 012.113 4.661 3.62 3.62 0 01-3.388 2.348 3.55 3.55 0 01-1.293-.236zm47.296-7.319a3.622 3.622 0 01.911-5.043 3.643 3.643 0 015.045.911c1.129 1.657.728 3.913-.911 5.042a3.618 3.618 0 01-2.076.638c-1.147 0-2.277-.528-2.969-1.548zm-69.642-8.083a3.604 3.604 0 01.29-5.098 3.628 3.628 0 015.118.292 3.626 3.626 0 01-.29 5.116 3.668 3.668 0 01-2.405.91 3.565 3.565 0 01-2.713-1.22zm87.782-9.794a3.613 3.613 0 01-1.512-4.898 3.613 3.613 0 014.881-1.51c1.767.928 2.459 3.113 1.529 4.878a3.641 3.641 0 01-3.223 1.949 3.743 3.743 0 01-1.675-.419zm-100.44-14.2a3.6 3.6 0 012.641-4.388 3.647 3.647 0 014.389 2.64 3.624 3.624 0 01-2.659 4.387c-.29.073-.582.11-.855.11-1.64 0-3.115-1.092-3.516-2.75zM136.83 85.019v-.201a3.595 3.595 0 013.606-3.623c2.003-.018 3.624 1.602 3.642 3.605 0 .037-.018.073-.018.11 0 .036.018.072.018.109a3.633 3.633 0 01-3.624 3.622 3.622 3.622 0 01-3.624-3.622zM34.861 75.934a3.614 3.614 0 01-2.659-4.369 3.635 3.635 0 014.37-2.677 3.635 3.635 0 012.66 4.388 3.614 3.614 0 01-3.516 2.767c-.273 0-.564-.036-.855-.109zm96.232-14.073a3.59 3.59 0 011.493-4.879 3.618 3.618 0 014.9 1.493 3.63 3.63 0 01-1.494 4.898 3.6 3.6 0 01-1.712.418 3.57 3.57 0 01-3.187-1.93zm-85.996-9.248a3.59 3.59 0 01-.329-5.097 3.613 3.613 0 015.118-.328 3.626 3.626 0 01.31 5.116 3.63 3.63 0 01-2.715 1.22 3.493 3.493 0 01-2.385-.911zm70.206-8.41c-1.638-1.129-2.057-3.387-.929-5.043a3.623 3.623 0 015.027-.929 3.606 3.606 0 01.947 5.025 3.606 3.606 0 01-2.987 1.583c-.71 0-1.42-.218-2.058-.637zm-50.338-7.501a3.635 3.635 0 012.094-4.68c1.877-.708 3.97.22 4.681 2.095.71 1.857-.218 3.95-2.094 4.678a3.54 3.54 0 01-1.294.237 3.649 3.649 0 01-3.387-2.33zm28.192-.82a3.65 3.65 0 01-3.187-4.023 3.623 3.623 0 014.025-3.167c1.986.218 3.406 2.02 3.17 4.023-.2 1.838-1.768 3.186-3.589 3.186-.146 0-.273 0-.419-.019z"/></g><defs><filter id="filter0_d" x="0" y="0" width="176.926" height="178" filterUnits="userSpaceOnUse" color-interpolation-filters="sRGB"><feFlood flood-opacity="0" result="BackgroundImageFix"/><feColorMatrix in="SourceAlpha" values="0 0 0 0 0 0 0 0 0 0 0 0 0 0 0 0 0 0 127 0" result="hardAlpha"/><feOffset dy="4"/><feGaussianBlur stdDeviation="2"/><feComposite in2="hardAlpha" operator="out"/><feColorMatrix values="0 0 0 0 0 0 0 0 0 0 0 0 0 0 0 0 0 0 0.25 0"/><feBlend in2="BackgroundImageFix" result="effect1_dropShadow"/><feBlend in="SourceGraphic" in2="effect1_dropShadow" result="shape"/></filter></defs></svg>