<svg xmlns="http://www.w3.org/2000/svg" xmlns:xlink="http://www.w3.org/1999/xlink"><defs>
<clipPath id="clip0">
<rect width="247" height="35" fill="white"/>
</clipPath>

<clipPath id="clip0">
<rect width="12" height="11" fill="white"/>
</clipPath>
</defs><symbol id="clock" viewBox="0 0 15 15">
<path d="M7.5 0C3.375 0 0 3.375 0 7.5C0 11.625 3.375 15 7.5 15C11.625 15 15 11.625 15 7.5C15 3.375 11.625 0 7.5 0ZM7.875 8.25H6.75V3.75H7.875V6.975L10.65 5.4L11.25 6.375L7.875 8.25Z" fill="#A73032"/>
</symbol><symbol id="inst" viewBox="0 0 12 12">
<path d="M11.9639 3.52625C11.9347 2.88757 11.8333 2.45142 11.685 2.06982C11.5344 1.66946 11.2982 1.30682 10.9929 1.00708C10.6933 0.701843 10.3305 0.465546 9.93018 0.31485C9.54849 0.166626 9.11243 0.0652771 8.47375 0.0362549C7.83389 0.00695801 7.62946 0 6 0C4.37054 0 4.16611 0.00695801 3.52625 0.0360718C2.88757 0.0652771 2.45151 0.166718 2.06982 0.315033C1.66946 0.465637 1.30682 0.701843 1.00708 1.00708C0.701843 1.30673 0.465546 1.66937 0.31485 2.06973C0.166626 2.45142 0.0652771 2.88757 0.0362549 3.52615C0.00695801 4.16611 0 4.37045 0 5.99991C0 7.62946 0.00695801 7.83389 0.0362549 8.47375C0.0653686 9.11234 0.166809 9.54849 0.315124 9.93018C0.465729 10.3304 0.701935 10.6932 1.00717 10.9928C1.30682 11.2981 1.66956 11.5343 2.06992 11.6849C2.45151 11.8333 2.88766 11.9346 3.52634 11.9638C4.16629 11.993 4.37064 11.9999 6.00009 11.9999C7.62955 11.9999 7.83398 11.993 8.47385 11.9638C9.11252 11.9346 9.54858 11.8333 9.93027 11.6849C10.7362 11.3732 11.3733 10.7361 11.685 9.93018C11.8334 9.54849 11.9347 9.11234 11.9639 8.47375C11.993 7.8338 12 7.62946 12 6C12 4.37045 11.993 4.16611 11.9639 3.52625ZM10.8839 8.42459C10.8572 9.00961 10.7595 9.3273 10.6773 9.5387C10.4755 10.062 10.0619 10.4756 9.5386 10.6774C9.32721 10.7596 9.00952 10.8573 8.4245 10.884C7.79196 10.9129 7.60217 10.9189 6 10.9189C4.39774 10.9189 4.20804 10.9129 3.57541 10.884C2.99048 10.8573 2.67279 10.7596 2.4613 10.6774C2.20074 10.5812 1.965 10.4279 1.77145 10.2285C1.57214 10.035 1.41879 9.79935 1.32257 9.5387C1.24045 9.3273 1.14267 9.00961 1.11603 8.42459C1.08719 7.79196 1.08105 7.60217 1.08105 6.00009C1.08105 4.39792 1.08719 4.20822 1.11603 3.5755C1.14276 2.99048 1.24045 2.67279 1.32257 2.4614C1.41879 2.20074 1.57224 1.965 1.77145 1.77145C1.965 1.57214 2.20074 1.41879 2.4614 1.32266C2.67279 1.24045 2.99048 1.14276 3.5755 1.11603C4.20813 1.08719 4.39792 1.08105 6 1.08105H5.99991C7.60199 1.08105 7.79178 1.08719 8.4245 1.11612C9.00952 1.14276 9.32712 1.24054 9.5386 1.32266C9.79916 1.41888 10.0349 1.57224 10.2285 1.77145C10.4278 1.965 10.5811 2.20074 10.6772 2.4614C10.7595 2.67279 10.8572 2.99048 10.8839 3.5755C10.9127 4.20813 10.9189 4.39792 10.9189 6C10.9189 7.60217 10.9128 7.79187 10.8839 8.42459Z" fill="white"/>
<path d="M5.99997 2.91888C4.29837 2.91888 2.91895 4.2984 2.91895 6C2.91895 7.7016 4.29837 9.08102 5.99997 9.08102C7.70166 9.08102 9.08109 7.7016 9.08109 6C9.08109 4.2984 7.70166 2.91888 5.99997 2.91888ZM5.99997 7.99997C4.89548 7.99988 4 7.10449 4.00009 5.99991C4.00009 4.89542 4.89548 3.99994 6.00006 3.99994C7.10464 4.00003 8.00003 4.89542 8.00003 5.99991C8.00003 7.10449 7.10455 7.99997 5.99997 7.99997Z" fill="white"/>
<path d="M9.92294 2.79721C9.92294 3.19482 9.60059 3.51718 9.20297 3.51718C8.80527 3.51718 8.48291 3.19482 8.48291 2.79721C8.48291 2.39951 8.80527 2.07715 9.20297 2.07715C9.60059 2.07715 9.92294 2.39951 9.92294 2.79721Z" fill="white"/>
</symbol><symbol id="logo" viewBox="0 0 247 35">
<g clip-path="url(#clip0)">
<path d="M176.1 14.3145C176.331 16.5548 175.824 18.7387 175.736 20.9707C175.717 21.4618 175.696 21.9585 175.739 22.4492C175.747 22.5408 175.752 22.6065 175.754 22.6542C175.767 22.698 175.785 22.7578 175.807 22.8399C175.846 23.0043 175.895 23.166 175.95 23.3258C175.916 23.1683 176.491 24.1468 176.324 23.9577C176.568 24.233 176.818 24.5042 177.1 24.7429C178.134 25.6201 179.734 26.2301 181.504 26.6355C183.679 27.1336 184.832 27.3536 186.957 27.2639C189.321 27.1643 191.66 26.8649 194.03 26.8488C194.519 26.8454 195.009 26.8473 195.499 26.8497V0.127502H175.533C175.113 4.85524 175.617 9.60855 176.1 14.3142L176.1 14.3145Z" fill="#A00711"/>
<path d="M181.182 15.6577C181.343 15.6577 181.418 15.7322 181.418 15.8905V20.113C181.418 21.2346 181.74 21.5628 182.843 21.5628H187.184C187.345 21.5628 187.42 21.637 187.42 21.7956V22.8328C187.42 22.9915 187.345 23.0655 187.184 23.0655H182.779C180.614 23.0655 179.778 22.3036 179.778 20.2718V15.8906C179.778 15.7324 179.864 15.6579 180.025 15.6579H181.182V15.6577Z" fill="white"/>
<path d="M183.001 26.1367C178.917 26.1367 176.916 24.2011 176.916 20.2897V2.21728V1.17643V0.127899H174.221V1.17643V2.21728V20.33C174.221 25.6125 177.12 28.2337 182.92 28.2337H195.499V26.1367H183.001Z" fill="white"/>
<path d="M20.9517 28.428H2.73682V15.4842H20.9517V28.428Z" fill="#F8141B"/>
<path d="M12.7254 25.4409C12.7254 25.8944 12.3576 26.2618 11.9039 26.2618H5.92781C5.47398 26.2618 5.10596 25.8944 5.10596 25.4409C5.10596 24.9875 5.47398 24.6205 5.92781 24.6205H11.9039C12.3576 24.6205 12.7254 24.9875 12.7254 25.4409Z" fill="white"/>
<path d="M12.7254 22.3972C12.7254 22.8508 12.3576 23.2183 11.9039 23.2183H5.92781C5.47398 23.2183 5.10596 22.8508 5.10596 22.3972C5.10596 21.9445 5.47398 21.5771 5.92781 21.5771H11.9039C12.3576 21.5771 12.7254 21.9445 12.7254 22.3972Z" fill="white"/>
<path d="M12.7254 19.3539C12.7254 19.8074 12.3576 20.1749 11.9039 20.1749H5.92781C5.47398 20.1749 5.10596 19.8074 5.10596 19.3539C5.10596 18.9009 5.47398 18.5338 5.92781 18.5338H11.9039C12.3576 18.5338 12.7254 18.9009 12.7254 19.3539Z" fill="white"/>
<path d="M2.73693 13.3875V7.86313C2.73693 4.23396 4.65637 2.41938 8.57703 2.41938H12.2119V0.322479H8.53622C2.8595 0.322479 0.000488281 2.82255 0.000488281 7.82285V24.7465V27.3798V28.4282H2.73677V27.3798V24.7465V15.4844H20.9516V13.3873H2.73677L2.73693 13.3875Z" fill="white"/>
<path d="M27.9208 17.9227H43.6667C43.7889 17.9227 43.8705 17.8421 43.8705 17.681V15.3047C43.8705 12.9283 42.6058 11.7203 40.1178 11.7203H31.8369C29.1853 11.7203 27.9209 12.9283 27.9209 15.3047V17.9227H27.9208ZM27.9208 19.8559V22.5142C27.9208 24.9711 29.4299 26.1792 32.4487 26.1792H37.0175C37.8742 26.1792 38.2822 26.5419 38.2822 27.2266C38.2822 27.871 37.8742 28.2334 37.0175 28.2334H32.4487C27.6351 28.2334 25.2285 26.3403 25.2285 22.5544V15.0631C25.2285 11.4784 27.3905 9.6662 31.6737 9.6662H40.2402C44.4419 9.6662 46.5631 11.3174 46.5631 14.5798V18.8895C46.5631 19.5338 46.0736 19.8559 45.2577 19.8559H27.9211H27.9208Z" fill="white"/>
<path d="M52.9787 17.9227H68.7246C68.847 17.9227 68.9286 17.8421 68.9286 17.681V15.3047C68.9286 12.9283 67.6639 11.7203 65.1759 11.7203H56.895C54.2434 11.7203 52.9789 12.9283 52.9789 15.3047V17.9227H52.9787ZM52.9787 19.8559V22.5142C52.9787 24.9711 54.488 26.1792 57.5068 26.1792H62.0756C62.9321 26.1792 63.3401 26.5419 63.3401 27.2266C63.3401 27.871 62.9321 28.2334 62.0756 28.2334H57.5068C52.6933 28.2334 50.2866 26.3403 50.2866 22.5544V15.0631C50.2866 11.4784 52.4486 9.6662 56.7318 9.6662H65.2983C69.4998 9.6662 71.6212 11.3174 71.6212 14.5798V18.8895C71.6212 19.5338 71.1317 19.8559 70.3159 19.8559H52.979H52.9787Z" fill="white"/>
<path d="M75.418 1.04709C75.418 0.362405 75.8668 0 76.7233 0C77.6617 0 78.1102 0.362405 78.1102 1.04709V27.3877C78.1102 28.0724 77.6617 28.435 76.7643 28.435C75.8668 28.435 75.418 28.0724 75.418 27.3877V1.04709Z" fill="white"/>
<path d="M82.4788 10.512C82.4788 9.82748 82.9276 9.46492 83.7841 9.46492C84.7224 9.46492 85.1711 9.82748 85.1711 10.512V27.3878C85.1711 28.0724 84.7224 28.435 83.8249 28.435C82.9276 28.435 82.4788 28.0724 82.4788 27.3878V10.512ZM83.7841 5.88051C82.8052 5.88051 82.3154 5.39693 82.3154 4.4707C82.3154 3.5443 82.8051 3.06088 83.7841 3.06088C84.804 3.06088 85.2933 3.5443 85.2933 4.4707C85.2933 5.39693 84.804 5.88051 83.7841 5.88051Z" fill="white"/>
<path d="M107.68 15.7478C107.68 13.0896 106.089 11.7605 102.785 11.7605H96.9512C93.7694 11.7605 92.0969 13.0895 92.0969 15.7478V27.3876C92.0969 28.0723 91.6484 28.4349 90.7507 28.4349C89.8942 28.4349 89.4048 28.0723 89.4048 27.3876V15.7478C89.4048 11.68 91.9746 9.6662 97.0329 9.6662H102.744C107.802 9.6662 110.413 11.68 110.413 15.7478V27.3876C110.413 28.0723 109.964 28.4349 109.067 28.4349C108.128 28.4349 107.68 28.0723 107.68 27.3876V15.7478H107.68Z" fill="white"/>
<path d="M121.912 26.0184H133.048V15.6273C133.048 13.0495 131.498 11.7609 128.398 11.7609H121.912C118.811 11.7609 117.261 13.0495 117.261 15.6273V22.5144C117.261 24.8505 118.811 26.0186 121.912 26.0186V26.0184ZM123.87 35C123.054 35 122.646 34.6375 122.646 33.9932C122.646 33.3086 123.054 32.946 123.87 32.946H128.561C131.58 32.946 133.048 31.7378 133.048 29.3211V28.0725H122.197C117.098 28.0725 114.528 26.0587 114.528 22.0311V15.7077C114.528 11.6801 117.098 9.6662 122.197 9.6662H128.112C133.211 9.6662 135.781 11.68 135.781 15.7077V29.2807C135.781 33.107 133.334 35 128.561 35H123.87H123.87Z" fill="white"/>
<path d="M159.261 24.5684C159.261 27.0254 157.058 28.2336 152.611 28.2336H140.823C140.007 28.2336 139.558 27.8712 139.558 27.2266C139.558 26.5419 140.007 26.1795 140.823 26.1795H152.611C155.304 26.1795 156.609 25.656 156.609 24.5684V21.9103C156.609 20.8227 155.304 20.299 152.611 20.299H146.493C141.965 20.299 139.762 19.0104 139.762 16.3521V14.1773C139.762 11.1564 142.047 9.6662 146.656 9.6662H150.939C151.755 9.6662 152.244 10.0288 152.244 10.7134C152.244 11.3577 151.755 11.7203 150.939 11.7203H146.656C143.841 11.7203 142.373 12.5659 142.373 14.1773V16.3119C142.373 17.641 143.841 18.3257 146.615 18.3257H152.734C157.099 18.3257 159.261 19.5339 159.261 21.9103V24.5684Z" fill="white"/>
<path d="M218.976 22.7962V17.6812H206.126C203.556 17.6812 202.332 18.7688 202.332 20.863V22.9978C202.332 25.0922 203.556 26.1795 206.126 26.1795H215.019C217.67 26.1795 218.976 25.0519 218.976 22.7962ZM205.963 28.2336C201.72 28.2336 199.64 26.5016 199.64 23.0782V20.9033C199.64 17.48 201.72 15.748 205.963 15.748H218.976V15.3451C218.976 12.9285 217.67 11.7203 214.978 11.7203H210.532C209.675 11.7203 209.267 11.3577 209.267 10.7133C209.267 10.0286 209.675 9.6662 210.532 9.6662H214.978C219.424 9.6662 221.627 11.5591 221.627 15.3451V22.8365C221.627 26.4211 219.465 28.2334 215.141 28.2334H205.963V28.2336Z" fill="white"/>
<path d="M228.48 11.7605V22.1919C228.48 24.81 230.152 26.1392 233.334 26.1392H239.453C242.635 26.1392 244.266 24.81 244.266 22.1919V15.7076C244.266 13.0896 242.635 11.7605 239.453 11.7605H228.48ZM233.416 28.2336C228.358 28.2336 225.788 26.2198 225.788 22.1919V1.04709C225.788 0.362405 226.277 0 227.134 0C228.031 0 228.48 0.362405 228.48 1.04709V9.66648H239.371C244.43 9.66648 247 11.6801 247 15.7078V22.1921C247 26.2198 244.43 28.2337 239.371 28.2337H233.416L233.416 28.2336Z" fill="white"/>
</g>

</symbol><symbol id="mail" viewBox="0 0 21 16">
<path d="M20.2667 4.25387V13.2C20.2667 14.7467 19.0133 16 17.4667 16H2.8C2.05739 16 1.3452 15.705 0.820101 15.1799C0.294999 14.6548 0 13.9426 0 13.2V4.25387L9.81227 9.6512C10.0123 9.76107 10.2549 9.76107 10.4544 9.6512L20.2667 4.25333V4.25387ZM17.4667 1.20417e-08C18.1976 6.79229e-05 18.8995 0.285948 19.4225 0.796574C19.9455 1.3072 20.2481 2.00209 20.2656 2.7328L10.1333 8.30613L0.00106659 2.73227L0.00213343 2.68427C0.0320015 1.96227 0.339844 1.27978 0.861285 0.779507C1.38273 0.279238 2.07739 -6.69616e-05 2.8 1.20417e-08H17.4667Z" fill="#A00711"/>
</symbol><symbol id="marker" viewBox="0 0 14 17">
<path d="M7 0C3.14041 0 7.12633e-05 3.05065 7.12633e-05 6.79575C-0.0253035 12.274 6.734 16.8164 7 17C7 17 14.0253 12.274 13.9999 6.8C13.9999 3.05065 10.8596 0 7 0ZM7 10.2C5.06627 10.2 3.50004 8.6785 3.50004 6.8C3.50004 4.9215 5.06627 3.4 7 3.4C8.93373 3.4 10.5 4.9215 10.5 6.8C10.5 8.6785 8.93373 10.2 7 10.2Z" fill="#A73032"/>
</symbol><symbol id="ol-marker" viewBox="0 0 45 45">
<path d="M40.0891 40.7779C33.1942 46.4074 11.6651 46.4074 4.9109 40.7779C-1.98402 35.1485 -1.28047 11.0829 4.9109 4.7498C11.1023 -1.58327 33.8977 -1.58327 40.0891 4.7498C46.2805 11.0829 46.984 35.1486 40.0891 40.7779Z" fill="#7B0000"/>
<path d="M22.5813 30.9186C16.4005 35.8325 9.51747 38.3596 3.05585 38.5C-1.72018 30.357 -0.736846 10.5613 4.88198 4.80506C9.93892 -0.389565 25.8121 -1.37238 34.9427 1.85671C37.1902 11.1229 32.5547 22.916 22.5813 30.9186Z" fill="#A00711"/>
</symbol><symbol id="phone" viewBox="0 0 26 27">
<path d="M10.5687 15.4776C12.1272 17.0921 14.013 18.3386 16.0936 19.1295L18.9083 16.8423C18.9917 16.7836 19.0906 16.7522 19.192 16.7522C19.2933 16.7522 19.3922 16.7836 19.4757 16.8423L24.7019 20.2807C24.9003 20.4025 25.0682 20.5698 25.1925 20.7692C25.3167 20.9687 25.3938 21.195 25.4177 21.4301C25.4416 21.6653 25.4116 21.9028 25.3302 22.1241C25.2487 22.3454 25.1179 22.5443 24.9483 22.7051L22.4994 25.1753C22.1487 25.5291 21.7177 25.7888 21.2448 25.9311C20.7719 26.0735 20.2718 26.0941 19.7892 25.991C14.9753 24.9758 10.5382 22.598 6.98504 19.1295C3.51072 15.6265 1.10651 11.1692 0.0640477 6.29842C-0.0389339 5.81326 -0.0174402 5.30917 0.126446 4.83499C0.270332 4.36081 0.53173 3.93262 0.885309 3.59192L3.42375 1.09127C3.58084 0.926435 3.7724 0.800021 3.98411 0.721497C4.19582 0.642972 4.42218 0.614373 4.64625 0.63784C4.87031 0.661307 5.08627 0.736233 5.27796 0.857006C5.46965 0.97778 5.6321 1.14127 5.75315 1.33524L9.23231 6.60338C9.29232 6.6861 9.32471 6.78633 9.32471 6.88927C9.32471 6.99222 9.29232 7.09245 9.23231 7.17517L6.94024 9.9884C7.73581 12.0705 8.97528 13.9455 10.5687 15.4776Z" fill="#A00711"/>
</symbol><symbol id="play" viewBox="0 0 82 82">
<path d="M41 0.75C18.7727 0.75 0.75 18.7727 0.75 41C0.75 63.2273 18.7727 81.25 41 81.25C63.2273 81.25 81.25 63.2273 81.25 41C81.25 18.7727 63.2273 0.75 41 0.75ZM53.9465 41.6199L34.3246 55.8961C34.217 55.9734 34.0902 56.0195 33.9581 56.0295C33.826 56.0394 33.6938 56.0127 33.5759 55.9524C33.4579 55.892 33.3589 55.8003 33.2897 55.6874C33.2205 55.5744 33.1838 55.4446 33.1836 55.3121V26.7777C33.1832 26.645 33.2195 26.5147 33.2886 26.4014C33.3576 26.288 33.4567 26.196 33.5749 26.1356C33.693 26.0751 33.8256 26.0485 33.958 26.0588C34.0903 26.0691 34.2172 26.1158 34.3246 26.1938L53.9465 40.4609C54.0392 40.5265 54.1148 40.6133 54.167 40.7142C54.2192 40.815 54.2464 40.9269 54.2464 41.0404C54.2464 41.154 54.2192 41.2659 54.167 41.3667C54.1148 41.4675 54.0392 41.5544 53.9465 41.6199Z" fill="white"/>
</symbol><symbol id="tlg" viewBox="0 0 12 11">
<g clip-path="url(#clip0)">
<path d="M0.207579 5.13151L3.14208 6.47213C3.25558 6.52347 3.38958 6.5198 3.49808 6.46159L6.11008 5.06963L4.52908 6.35388C4.44858 6.41943 4.40258 6.51293 4.40258 6.61147V9.73959C4.40258 10.0696 4.86208 10.2085 5.07758 9.9463L6.34608 8.40034L9.48308 10.038C9.70308 10.1539 9.98508 10.0375 10.0361 9.80697L11.9926 0.869468C12.0511 0.600885 11.7596 0.381801 11.4886 0.481718L0.238579 4.50359C-0.063421 4.61176 -0.082921 4.99905 0.207579 5.13151ZM11.1226 1.35072L9.40308 9.20517L6.43058 7.65326C6.26858 7.56847 6.06008 7.60605 5.94508 7.74538L5.15258 8.71109V6.76593L9.42808 3.29359C9.76658 3.01905 9.37758 2.53093 8.99108 2.73901L3.29608 5.77409L1.30008 4.86247L11.1226 1.35072Z" fill="white"/>
</g>

</symbol></svg>